<svg width="43" height="41" viewBox="0 0 43 41" fill="none" xmlns="http://www.w3.org/2000/svg">
<path d="M0.632812 0.429688C2.61695 1.22431 4.69846 1.74999 6.82198 1.99274C9.51093 1.70282 13.586 2.04316 15.0366 1.99274C31.2721 2.11022 33.2259 0.732213 38.7848 6.02641C43.541 10.5542 42.9617 17.96 42.9864 24.968C43.0162 33.2209 42.9864 40.7664 42.9864 40.7664C42.9864 40.7664 35.5241 40.5784 27.0196 40.7664C19.764 40.9273 11.7103 41.8086 6.73375 37.0691C2.33956 32.8841 2.78074 26.4469 2.72024 18.309C2.4878 13.0092 2.34259 4.01865 2.1999 3.21948C2.00859 2.1389 1.45607 1.15529 0.632812 0.429688Z" fill="#0011FF"/>
<path d="M5.80012 8.49707H2.01855V12.2786H5.80012V8.49707Z" fill="white"/>
<path d="M9.3304 4.96777H5.54883V8.74934H9.3304V4.96777Z" fill="white"/>
<path d="M12.8597 1.43774H9.07812V5.21931H12.8597V1.43774Z" fill="white"/>
<path d="M5.80012 4.96777H2.01855V8.74934H5.80012V4.96777Z" fill="#0011FF"/>
<path d="M5.80012 1.43774H2.01855V5.21931H5.80012V1.43774Z" fill="white"/>
<path d="M9.3304 1.56421H5.54883V5.34578H9.3304V1.56421Z" fill="#0011FF"/>
<path d="M4.41438 0.429688H0.632812V3.95915H4.41438V0.429688Z" fill="#0011FF"/>
<path d="M19.6582 23.3674C19.6582 21.1541 21.4524 19.3599 23.6657 19.3599V24.2261C23.6657 25.3328 22.7686 26.2299 21.662 26.2299C20.5553 26.2299 19.6582 25.3328 19.6582 24.2261V23.3674Z" fill="white"/>
<path d="M24.2373 15.9247C24.2373 13.7115 26.0315 11.9172 28.2448 11.9172V23.3673C28.2448 25.5805 26.4506 27.3748 24.2373 27.3748V22.5085V15.9247Z" fill="white"/>
<path d="M18.6251 19.3599C14.2741 23.0239 16.8122 26.2299 18.6251 27.3749H20.6288C16.9648 23.7109 19.1021 20.5049 20.6288 19.3599H18.6251Z" fill="white"/>
<path d="M21.0889 27.6613L23.3789 26.5163C24.7782 30.9943 27.9836 25.7307 30.9082 22.7115C30.9781 22.6276 31.0445 22.5593 31.1076 22.5088C31.0413 22.5751 30.9748 22.6427 30.9082 22.7115C29.3942 24.5304 26.2878 33.6811 21.0889 27.6613Z" fill="white"/>
<rect x="22.5195" y="19.9321" width="0.572501" height="0.572501" fill="#0011FF"/>
<rect x="21.9473" y="19.3596" width="0.572501" height="0.572501" fill="#0011FF"/>
<rect x="23.0928" y="19.3596" width="0.572501" height="0.572501" fill="#0011FF"/>
<rect x="21.9473" y="20.5049" width="0.572501" height="0.572501" fill="#0011FF"/>
<rect x="21.375" y="19.9321" width="0.572501" height="0.572501" fill="#0011FF"/>
<rect x="20.8018" y="20.5049" width="0.572501" height="0.572501" fill="#0011FF"/>
<rect x="20.2295" y="21.0771" width="0.572501" height="0.572501" fill="#0011FF"/>
<rect x="19.6572" y="21.6497" width="0.572501" height="0.572501" fill="#0011FF"/>
<rect x="19.6572" y="22.7947" width="0.572501" height="0.572501" fill="#0011FF"/>
<rect x="19.6572" y="23.9399" width="0.572501" height="0.572501" fill="#0011FF"/>
<rect x="20.2295" y="24.5125" width="0.572501" height="0.572501" fill="#0011FF"/>
<rect x="20.8018" y="25.085" width="0.572501" height="0.572501" fill="#0011FF"/>
<rect x="21.375" y="25.6572" width="0.572501" height="0.572501" fill="#0011FF"/>
<rect x="19.6572" y="25.085" width="0.572501" height="0.572501" fill="#0011FF"/>
<rect x="20.2295" y="25.6572" width="0.572501" height="0.572501" fill="#0011FF"/>
<rect x="20.2295" y="23.3669" width="0.572501" height="0.572501" fill="#0011FF"/>
<rect x="20.8018" y="23.9399" width="0.572501" height="0.572501" fill="#0011FF"/>
<rect x="21.375" y="24.5125" width="0.572501" height="0.572501" fill="#0011FF"/>
<rect x="21.9473" y="25.085" width="0.572501" height="0.572501" fill="#0011FF"/>
<rect x="22.5195" y="25.6572" width="0.572501" height="0.572501" fill="#0011FF"/>
<rect x="21.9473" y="23.9399" width="0.572501" height="0.572501" fill="#0011FF"/>
<rect x="22.5195" y="24.5125" width="0.572501" height="0.572501" fill="#0011FF"/>
<rect x="23.0928" y="25.085" width="0.572501" height="0.572501" fill="#0011FF"/>
<rect x="20.2295" y="22.2219" width="0.572501" height="0.572501" fill="#0011FF"/>
<rect x="20.8018" y="22.7947" width="0.572501" height="0.572501" fill="#0011FF"/>
<rect x="21.375" y="23.3669" width="0.572501" height="0.572501" fill="#0011FF"/>
<rect x="20.8018" y="21.6497" width="0.572501" height="0.572501" fill="#0011FF"/>
<rect x="21.375" y="22.2219" width="0.572501" height="0.572501" fill="#0011FF"/>
<rect x="21.9473" y="22.7947" width="0.572501" height="0.572501" fill="#0011FF"/>
<rect x="22.5195" y="23.3669" width="0.572501" height="0.572501" fill="#0011FF"/>
<rect x="23.0928" y="23.9399" width="0.572501" height="0.572501" fill="#0011FF"/>
<rect x="21.375" y="21.0771" width="0.572501" height="0.572501" fill="#0011FF"/>
<rect x="21.9473" y="21.6497" width="0.572501" height="0.572501" fill="#0011FF"/>
<rect x="22.5195" y="22.2219" width="0.572501" height="0.572501" fill="#0011FF"/>
<rect x="23.0928" y="22.7947" width="0.572501" height="0.572501" fill="#0011FF"/>
<rect x="22.5195" y="21.0771" width="0.572501" height="0.572501" fill="#0011FF"/>
<rect x="23.0928" y="21.6497" width="0.572501" height="0.572501" fill="#0011FF"/>
<rect x="23.0928" y="20.5049" width="0.572501" height="0.572501" fill="#0011FF"/>
</svg>
