<svg width="24" height="24" viewBox="0 0 24 24" fill="none" xmlns="http://www.w3.org/2000/svg">
<circle cx="12" cy="12" r="12" fill="#000219"/>
<path d="M8.68916 6.6001C8.03261 6.6001 7.5 7.13183 7.5 7.78838C7.5 8.44493 8.03218 8.98896 8.68828 8.98896C9.34438 8.98896 9.87744 8.44493 9.87744 7.78838C9.87744 7.13228 9.34571 6.6001 8.68916 6.6001ZM14.4908 9.7501C13.4923 9.7501 12.9209 10.2723 12.6469 10.7916H12.6179V9.88984H10.65V16.5001H12.7005V13.2279C12.7005 12.3657 12.7656 11.5325 13.8325 11.5325C14.8842 11.5325 14.8995 12.5156 14.8995 13.2824V16.5001H16.9474H16.95V12.8693C16.95 11.0927 16.568 9.7501 14.4908 9.7501ZM7.66348 9.88984V16.5001H9.71572V9.88984H7.66348Z" fill="white"/>
</svg>
