<svg width="24" height="24" viewBox="0 0 24 24" fill="none" xmlns="http://www.w3.org/2000/svg">
<circle cx="12" cy="12" r="12" fill="#000219"/>
<path d="M9.59961 6.6001C7.94301 6.6001 6.59961 7.9435 6.59961 9.6001V14.4001C6.59961 16.0567 7.94301 17.4001 9.59961 17.4001H14.3996C16.0562 17.4001 17.3996 16.0567 17.3996 14.4001V9.6001C17.3996 7.9435 16.0562 6.6001 14.3996 6.6001H9.59961ZM15.5996 7.8001C15.9308 7.8001 16.1996 8.0689 16.1996 8.4001C16.1996 8.7313 15.9308 9.0001 15.5996 9.0001C15.2684 9.0001 14.9996 8.7313 14.9996 8.4001C14.9996 8.0689 15.2684 7.8001 15.5996 7.8001ZM11.9996 9.0001C13.6562 9.0001 14.9996 10.3435 14.9996 12.0001C14.9996 13.6567 13.6562 15.0001 11.9996 15.0001C10.343 15.0001 8.99961 13.6567 8.99961 12.0001C8.99961 10.3435 10.343 9.0001 11.9996 9.0001ZM11.9996 10.2001C11.5222 10.2001 11.0644 10.3897 10.7268 10.7273C10.3893 11.0649 10.1996 11.5227 10.1996 12.0001C10.1996 12.4775 10.3893 12.9353 10.7268 13.2729C11.0644 13.6105 11.5222 13.8001 11.9996 13.8001C12.477 13.8001 12.9348 13.6105 13.2724 13.2729C13.61 12.9353 13.7996 12.4775 13.7996 12.0001C13.7996 11.5227 13.61 11.0649 13.2724 10.7273C12.9348 10.3897 12.477 10.2001 11.9996 10.2001Z" fill="white"/>
</svg>
