<svg width="21" height="33" viewBox="0 0 21 33" fill="none" xmlns="http://www.w3.org/2000/svg">
<g clip-path="url(#clip0_3_265)">
<path d="M7.49996 18.3334C7.9602 18.3334 8.33329 17.9603 8.33329 17.5001C8.33329 17.0398 7.9602 16.6667 7.49996 16.6667C7.03972 16.6667 6.66663 17.0398 6.66663 17.5001C6.66663 17.9603 7.03972 18.3334 7.49996 18.3334Z" stroke="#212529" stroke-width="2" stroke-linecap="round" stroke-linejoin="round"/>
<path d="M16.6667 18.3334C17.1269 18.3334 17.5 17.9603 17.5 17.5001C17.5 17.0398 17.1269 16.6667 16.6667 16.6667C16.2065 16.6667 15.8334 17.0398 15.8334 17.5001C15.8334 17.9603 16.2065 18.3334 16.6667 18.3334Z" stroke="#212529" stroke-width="2" stroke-linecap="round" stroke-linejoin="round"/>
<path d="M0.833374 0.833252H4.16671L6.40004 11.9916C6.47624 12.3752 6.68496 12.7199 6.98966 12.9652C7.29436 13.2104 7.67562 13.3407 8.06671 13.3333H16.1667C16.5578 13.3407 16.9391 13.2104 17.2438 12.9652C17.5485 12.7199 17.7572 12.3752 17.8334 11.9916L19.1667 4.99992H5.00004" stroke="#212529" stroke-width="2" stroke-linecap="round" stroke-linejoin="round"/>
</g>
<path d="M3.78 30.11C3.04667 30.11 2.42 29.9533 1.9 29.64C1.38667 29.32 0.996667 28.8733 0.73 28.3C0.463333 27.7267 0.33 27.0533 0.33 26.28C0.33 25.5333 0.486667 24.8733 0.8 24.3C1.11333 23.7267 1.54333 23.2833 2.09 22.97C2.63667 22.65 3.25 22.49 3.93 22.49C4.44333 22.49 5.06 22.57 5.78 22.73L6.11 22.79L6.01 24.59H5.34L5.09 23.32C4.99667 23.24 4.83333 23.1733 4.6 23.12C4.37333 23.06 4.09333 23.03 3.76 23.03C3.33333 23.03 2.95333 23.1533 2.62 23.4C2.28667 23.64 2.02333 23.9967 1.83 24.47C1.64333 24.9433 1.55 25.51 1.55 26.17C1.55 26.7967 1.63333 27.3667 1.8 27.88C1.96667 28.3933 2.22 28.8033 2.56 29.11C2.9 29.41 3.32 29.56 3.82 29.56C4.17333 29.56 4.44333 29.53 4.63 29.47C4.82333 29.41 4.98667 29.3233 5.12 29.21L5.54 28.23L6.17 28.31L5.93 29.73C5.79 29.7367 5.58333 29.7833 5.31 29.87C5.07 29.9433 4.83667 30 4.61 30.04C4.39 30.0867 4.11333 30.11 3.78 30.11ZM6.9832 28.5C6.9832 27.8733 7.29654 27.4133 7.9232 27.12C8.54987 26.82 9.3432 26.66 10.3032 26.64V26.36C10.3032 26.0467 10.2699 25.8 10.2032 25.62C10.1365 25.44 10.0199 25.31 9.8532 25.23C9.6932 25.1433 9.4632 25.1 9.1632 25.1C8.8232 25.1 8.51654 25.15 8.2432 25.25C7.97654 25.3433 7.70987 25.46 7.4432 25.6L7.1932 25.08C7.27987 25.0067 7.43987 24.91 7.6732 24.79C7.90654 24.67 8.17654 24.5633 8.4832 24.47C8.78987 24.3767 9.09654 24.33 9.4032 24.33C9.87654 24.33 10.2499 24.3967 10.5232 24.53C10.8032 24.6567 11.0032 24.8633 11.1232 25.15C11.2432 25.4367 11.3032 25.82 11.3032 26.3V29.51H11.8932V29.95C11.7599 29.9833 11.5899 30.0167 11.3832 30.05C11.1832 30.0833 11.0065 30.1 10.8532 30.1C10.6665 30.1 10.5399 30.07 10.4732 30.01C10.4065 29.9567 10.3732 29.8333 10.3732 29.64V29.31C10.1732 29.51 9.92654 29.6933 9.6332 29.86C9.34654 30.0267 9.01987 30.11 8.6532 30.11C8.1732 30.11 7.7732 29.9733 7.4532 29.7C7.13987 29.42 6.9832 29.02 6.9832 28.5ZM9.0832 29.43C9.25654 29.43 9.45654 29.3767 9.6832 29.27C9.90987 29.1633 10.1165 29.0367 10.3032 28.89V27.17C9.57654 27.17 9.02654 27.2833 8.6532 27.51C8.28654 27.73 8.1032 28.02 8.1032 28.38C8.1032 28.74 8.18987 29.0067 8.3632 29.18C8.5432 29.3467 8.7832 29.43 9.0832 29.43ZM12.6087 29.51L13.3587 29.45V25.22L12.6387 25.04V24.5L14.0187 24.32H14.0387L14.2587 24.5V24.68L14.2287 25.46H14.2587C14.3253 25.3467 14.4453 25.2 14.6187 25.02C14.792 24.84 15.0153 24.6767 15.2887 24.53C15.562 24.3767 15.8587 24.3 16.1787 24.3C16.312 24.3 16.422 24.3167 16.5087 24.35V25.47C16.462 25.4367 16.3853 25.4067 16.2787 25.38C16.1787 25.3467 16.0653 25.33 15.9387 25.33C15.3853 25.33 14.872 25.5 14.3987 25.84V29.44L15.6687 29.52V30H12.6087V29.51ZM18.8788 30.1C18.4988 30.1 18.2154 30.0133 18.0288 29.84C17.8421 29.6667 17.7488 29.37 17.7488 28.95V25.11H17.0288V24.66C17.0621 24.6533 17.1554 24.63 17.3088 24.59C17.4621 24.55 17.5654 24.5133 17.6188 24.48C17.7254 24.42 17.8088 24.3 17.8688 24.12C17.9221 23.9933 17.9854 23.79 18.0588 23.51C18.1321 23.23 18.1754 23.0633 18.1887 23.01H18.7788L18.7988 24.45H20.4688V25.11H18.7988V28.18C18.7988 28.56 18.8088 28.8267 18.8288 28.98C18.8554 29.1333 18.9054 29.2333 18.9788 29.28C19.0588 29.3267 19.1921 29.35 19.3788 29.35C19.5588 29.35 19.7554 29.3267 19.9688 29.28C20.1888 29.2333 20.3588 29.1833 20.4788 29.13L20.6288 29.58C20.4688 29.7 20.2088 29.8167 19.8488 29.93C19.4954 30.0433 19.1721 30.1 18.8788 30.1Z" fill="#212529"/>
<defs>
<clipPath id="clip0_3_265">
<rect width="20" height="20" fill="white"/>
</clipPath>
</defs>
</svg>
