<svg width="116" height="41" viewBox="0 0 116 41" fill="none" xmlns="http://www.w3.org/2000/svg">
<path d="M0 0C1.98414 0.794627 4.06565 1.3203 6.18917 1.56305C8.87812 1.27313 12.9531 1.61347 14.4037 1.56305C30.6393 1.68053 32.5931 0.302526 38.152 5.59672C42.9082 10.1245 42.3289 17.5304 42.3536 24.5384C42.3833 32.7913 42.3536 40.3368 42.3536 40.3368C42.3536 40.3368 34.8913 40.1487 26.3868 40.3368C19.1312 40.4976 11.0775 41.379 6.10093 36.6394C1.70675 32.4544 2.14793 26.0172 2.08743 17.8793C1.85499 12.5795 1.70977 3.58896 1.56708 2.78979C1.37578 1.70921 0.823261 0.725598 0 0Z" fill="#0011FF"/>
<path d="M5.1678 8.06738H1.38623V11.849H5.1678V8.06738Z" fill="white"/>
<path d="M8.69783 4.53809H4.91626V8.31966H8.69783V4.53809Z" fill="white"/>
<path d="M12.2271 1.00806H8.44556V4.78963H12.2271V1.00806Z" fill="white"/>
<path d="M5.1678 4.53809H1.38623V8.31966H5.1678V4.53809Z" fill="#0011FF"/>
<path d="M5.1678 1.00806H1.38623V4.78963H5.1678V1.00806Z" fill="white"/>
<path d="M8.69783 1.13452H4.91626V4.91609H8.69783V1.13452Z" fill="#0011FF"/>
<path d="M3.78157 0H0V3.52947H3.78157V0Z" fill="#0011FF"/>
<path d="M19.0254 22.9377C19.0254 20.7244 20.8196 18.9302 23.0329 18.9302V23.7964C23.0329 24.9031 22.1358 25.8002 21.0291 25.8002C19.9225 25.8002 19.0254 24.9031 19.0254 23.7964V22.9377Z" fill="white"/>
<path d="M23.605 15.4951C23.605 13.2818 25.3992 11.4875 27.6125 11.4875V22.9376C27.6125 25.1509 25.8183 26.9451 23.605 26.9451V22.0788V15.4951Z" fill="white"/>
<path d="M17.9927 18.9302C13.6417 22.5942 16.1798 25.8002 17.9927 26.9452H19.9965C16.3325 23.2812 18.4698 20.0752 19.9965 18.9302H17.9927Z" fill="white"/>
<path d="M20.4565 27.2316L22.7465 26.0866C24.1459 30.5646 27.3513 25.301 30.2759 22.2818C30.3457 22.1979 30.4122 22.1296 30.4753 22.0791C30.409 22.1454 30.3425 22.213 30.2759 22.2818C28.7619 24.1007 25.6555 33.2514 20.4565 27.2316Z" fill="white"/>
<rect x="21.8872" y="19.5024" width="0.572501" height="0.572501" fill="#0011FF"/>
<rect x="21.3152" y="18.9299" width="0.572501" height="0.572501" fill="#0011FF"/>
<rect x="22.4602" y="18.9299" width="0.572501" height="0.572501" fill="#0011FF"/>
<rect x="21.3152" y="20.0752" width="0.572501" height="0.572501" fill="#0011FF"/>
<rect x="20.7427" y="19.5024" width="0.572501" height="0.572501" fill="#0011FF"/>
<rect x="20.1697" y="20.0752" width="0.572501" height="0.572501" fill="#0011FF"/>
<rect x="19.5977" y="20.6475" width="0.572501" height="0.572501" fill="#0011FF"/>
<rect x="19.0251" y="21.22" width="0.572501" height="0.572501" fill="#0011FF"/>
<rect x="19.0251" y="22.365" width="0.572501" height="0.572501" fill="#0011FF"/>
<rect x="19.0251" y="23.5103" width="0.572501" height="0.572501" fill="#0011FF"/>
<rect x="19.5977" y="24.0828" width="0.572501" height="0.572501" fill="#0011FF"/>
<rect x="20.1697" y="24.6553" width="0.572501" height="0.572501" fill="#0011FF"/>
<rect x="20.7427" y="25.2275" width="0.572501" height="0.572501" fill="#0011FF"/>
<rect x="19.0251" y="24.6553" width="0.572501" height="0.572501" fill="#0011FF"/>
<rect x="19.5977" y="25.2275" width="0.572501" height="0.572501" fill="#0011FF"/>
<rect x="19.5977" y="22.9373" width="0.572501" height="0.572501" fill="#0011FF"/>
<rect x="20.1697" y="23.5103" width="0.572501" height="0.572501" fill="#0011FF"/>
<rect x="20.7427" y="24.0828" width="0.572501" height="0.572501" fill="#0011FF"/>
<rect x="21.3152" y="24.6553" width="0.572501" height="0.572501" fill="#0011FF"/>
<rect x="21.8872" y="25.2275" width="0.572501" height="0.572501" fill="#0011FF"/>
<rect x="21.3152" y="23.5103" width="0.572501" height="0.572501" fill="#0011FF"/>
<rect x="21.8872" y="24.0828" width="0.572501" height="0.572501" fill="#0011FF"/>
<rect x="22.4602" y="24.6553" width="0.572501" height="0.572501" fill="#0011FF"/>
<rect x="19.5977" y="21.7922" width="0.572501" height="0.572501" fill="#0011FF"/>
<rect x="20.1697" y="22.365" width="0.572501" height="0.572501" fill="#0011FF"/>
<rect x="20.7427" y="22.9373" width="0.572501" height="0.572501" fill="#0011FF"/>
<rect x="20.1697" y="21.22" width="0.572501" height="0.572501" fill="#0011FF"/>
<rect x="20.7427" y="21.7922" width="0.572501" height="0.572501" fill="#0011FF"/>
<rect x="21.3152" y="22.365" width="0.572501" height="0.572501" fill="#0011FF"/>
<rect x="21.8872" y="22.9373" width="0.572501" height="0.572501" fill="#0011FF"/>
<rect x="22.4602" y="23.5103" width="0.572501" height="0.572501" fill="#0011FF"/>
<rect x="20.7427" y="20.6475" width="0.572501" height="0.572501" fill="#0011FF"/>
<rect x="21.3152" y="21.22" width="0.572501" height="0.572501" fill="#0011FF"/>
<rect x="21.8872" y="21.7922" width="0.572501" height="0.572501" fill="#0011FF"/>
<rect x="22.4602" y="22.365" width="0.572501" height="0.572501" fill="#0011FF"/>
<rect x="21.8872" y="20.6475" width="0.572501" height="0.572501" fill="#0011FF"/>
<rect x="22.4602" y="21.22" width="0.572501" height="0.572501" fill="#0011FF"/>
<rect x="22.4602" y="20.0752" width="0.572501" height="0.572501" fill="#0011FF"/>
<path d="M45.7947 8.55431L44.8467 8.39831V7.65431H47.5707L51.1467 13.0543L51.8187 14.4223V8.55431L50.7867 8.39831V7.65431H53.7627V8.39831L52.8387 8.55431V16.5703H51.3867L47.6547 10.8943L46.8147 9.31031V15.7303L48.0267 15.8503V16.5703H44.8467V15.8503L45.7947 15.7303V8.55431ZM54.5395 13.2463C54.5395 12.4943 54.6875 11.8543 54.9835 11.3263C55.2875 10.7983 55.6915 10.4023 56.1955 10.1383C56.6995 9.86631 57.2475 9.73031 57.8395 9.73031C58.8475 9.73031 59.6235 10.0423 60.1675 10.6663C60.7195 11.2823 60.9955 12.1223 60.9955 13.1863C60.9955 13.9463 60.8435 14.5943 60.5395 15.1303C60.2435 15.6583 59.8435 16.0543 59.3395 16.3183C58.8435 16.5743 58.2955 16.7023 57.6955 16.7023C56.6955 16.7023 55.9195 16.3943 55.3675 15.7783C54.8155 15.1543 54.5395 14.3103 54.5395 13.2463ZM57.7915 15.9223C58.6955 15.9223 59.1475 15.0503 59.1475 13.3063C59.1475 12.3943 59.0395 11.7023 58.8235 11.2303C58.6075 10.7503 58.2555 10.5103 57.7675 10.5103C56.8395 10.5103 56.3755 11.3823 56.3755 13.1263C56.3755 14.0383 56.4875 14.7343 56.7115 15.2143C56.9435 15.6863 57.3035 15.9223 57.7915 15.9223ZM61.3784 9.91031H64.4744V10.5943L63.6344 10.7383L64.5224 13.9303L64.8104 15.2383L65.0744 13.9183L66.1544 9.91031H67.6064L68.7944 13.9183L69.0824 15.2383L69.3704 13.9303L70.2104 10.7503L69.3344 10.5943V9.91031H71.9024V10.5943L71.2904 10.7263L69.4664 16.6663H68.0864L66.8744 12.7783L66.5984 11.3503L66.3824 12.7783L65.2664 16.6663H63.8744L61.9544 10.7263L61.3784 10.5943V9.91031Z" fill="#212529"/>
<path d="M45.2046 31.5703C45.146 31.5703 45.0972 31.5352 45.0581 31.4648C45.0229 31.3945 45.0054 31.3301 45.0054 31.2715C45.0054 31.2051 45.019 31.1543 45.0464 31.1191C45.0737 31.084 45.1245 31.0625 45.1987 31.0547C45.4331 31.0352 45.6323 30.998 45.7964 30.9434C45.9644 30.8848 46.0483 30.7969 46.0483 30.6797V24.3398C46.0483 24.1875 46.0034 24.0723 45.9136 23.9941C45.8237 23.916 45.7241 23.8652 45.6147 23.8418C45.5093 23.8184 45.3569 23.7949 45.1577 23.7715C45.0718 23.7637 45.0151 23.748 44.9878 23.7246C44.9604 23.6973 44.9468 23.6406 44.9468 23.5547C44.9468 23.4961 44.9644 23.4316 44.9995 23.3613C45.0386 23.291 45.0874 23.2559 45.146 23.2559H49.0308C50.0464 23.2598 50.8979 23.4473 51.5854 23.8184C52.2729 24.1895 52.7827 24.6777 53.1147 25.2832C53.4507 25.8848 53.6187 26.5391 53.6187 27.2461C53.6187 28.1992 53.3999 29.002 52.9624 29.6543C52.5288 30.3027 51.9878 30.7852 51.3394 31.1016C50.6909 31.4141 50.0483 31.5703 49.4116 31.5703H45.2046ZM47.7827 30.5859C47.7827 30.6914 47.8706 30.7832 48.0464 30.8613C48.2261 30.9395 48.5444 30.9785 49.0015 30.9785C49.5601 30.9785 50.0229 30.8945 50.3901 30.7266C50.7573 30.5586 51.0522 30.2051 51.2749 29.666C51.5015 29.127 51.6147 28.3281 51.6147 27.2695C51.6147 26.3555 51.4937 25.6465 51.2515 25.1426C51.0093 24.6348 50.6929 24.2891 50.3022 24.1055C49.9116 23.918 49.4585 23.8242 48.9429 23.8242H47.7886L47.7827 30.5859ZM54.6499 31.5703C54.5874 31.5703 54.5386 31.5449 54.5034 31.4941C54.4683 31.4395 54.4507 31.3848 54.4507 31.3301C54.4507 31.2637 54.4644 31.2129 54.4917 31.1777C54.5229 31.1387 54.5737 31.1172 54.644 31.1133C55.0933 31.0664 55.3179 30.9551 55.3179 30.7793L55.3237 27.0117C55.3237 26.8281 55.2905 26.6895 55.2241 26.5957C55.1616 26.502 55.0854 26.4395 54.9956 26.4082C54.9058 26.377 54.7905 26.3516 54.6499 26.332C54.6304 26.3281 54.5991 26.3242 54.5562 26.3203C54.5132 26.3125 54.478 26.3047 54.4507 26.2969C54.4038 26.2773 54.3687 26.25 54.3452 26.2148C54.3218 26.1797 54.3101 26.1289 54.3101 26.0625C54.3101 26.0078 54.3218 25.9531 54.3452 25.8984C54.3726 25.8398 54.4077 25.8086 54.4507 25.8047C55.2397 25.7539 56.0054 25.7285 56.7476 25.7285C56.7905 25.7285 56.8296 25.748 56.8647 25.7871C56.8999 25.8223 56.9194 25.8809 56.9233 25.9629V30.5859C56.9233 30.7305 56.9585 30.8398 57.0288 30.9141C57.103 30.9883 57.187 31.0371 57.2808 31.0605C57.3745 31.0801 57.4937 31.0977 57.6382 31.1133C57.7241 31.1211 57.7808 31.1387 57.8081 31.166C57.8354 31.1895 57.8491 31.2441 57.8491 31.3301C57.8491 31.3809 57.8296 31.4336 57.7905 31.4883C57.7554 31.543 57.7085 31.5703 57.6499 31.5703H54.6499ZM56.0913 24.709C55.9077 24.709 55.7417 24.668 55.5933 24.5859C55.4487 24.5 55.3335 24.3828 55.2476 24.2344C55.1616 24.082 55.1187 23.9121 55.1187 23.7246C55.1187 23.5371 55.1616 23.3691 55.2476 23.2207C55.3335 23.0684 55.4487 22.9492 55.5933 22.8633C55.7417 22.7773 55.9077 22.7344 56.0913 22.7344C56.271 22.7344 56.4351 22.7773 56.5835 22.8633C56.7319 22.9492 56.8491 23.0684 56.9351 23.2207C57.021 23.3691 57.064 23.5371 57.064 23.7246C57.064 23.9121 57.021 24.082 56.9351 24.2344C56.8491 24.3828 56.7319 24.5 56.5835 24.5859C56.4351 24.668 56.271 24.709 56.0913 24.709ZM61.1831 34.3711C60.6714 34.3711 60.1987 34.3105 59.7651 34.1895C59.3315 34.0684 58.9819 33.8848 58.7163 33.6387C58.4546 33.3926 58.3237 33.0918 58.3237 32.7363C58.3237 32.1309 58.6851 31.7148 59.4077 31.4883C59.1147 31.3672 58.9136 31.2207 58.8042 31.0488C58.6987 30.873 58.646 30.666 58.646 30.4277C58.646 30.1621 58.7515 29.9219 58.9624 29.707C59.1733 29.4883 59.4253 29.334 59.7183 29.2441C59.3589 29.0801 59.0913 28.8477 58.9155 28.5469C58.7437 28.2422 58.6577 27.9121 58.6577 27.5566C58.6577 27.1816 58.7515 26.8496 58.939 26.5605C59.1304 26.2676 59.4136 26.0391 59.7886 25.875C60.1675 25.7109 60.6265 25.6289 61.1655 25.6289C61.5522 25.6289 61.8765 25.6719 62.1382 25.7578C62.4038 25.8438 62.6401 25.9707 62.8472 26.1387C62.9761 25.9863 63.1284 25.8613 63.3042 25.7637C63.4839 25.6621 63.6675 25.6113 63.855 25.6113C64.1167 25.6113 64.3354 25.6914 64.5112 25.8516C64.687 26.0117 64.7749 26.2402 64.7749 26.5371C64.7749 26.7754 64.73 26.957 64.6401 27.082C64.5542 27.207 64.4272 27.2695 64.2593 27.2695L63.5737 26.2617C63.4761 26.2656 63.394 26.2812 63.3276 26.3086C63.2651 26.3359 63.2007 26.3789 63.1343 26.4375C63.3647 26.7578 63.48 27.125 63.48 27.5391C63.48 27.918 63.3921 28.2559 63.2163 28.5527C63.0444 28.8496 62.7769 29.084 62.4136 29.2559C62.0503 29.4238 61.5972 29.5078 61.0542 29.5078C60.644 29.5078 60.3198 29.4707 60.0815 29.3965C59.9761 29.459 59.894 29.543 59.8354 29.6484C59.7769 29.7539 59.7476 29.8633 59.7476 29.9766C59.7476 30.1406 59.8276 30.2559 59.9878 30.3223C60.1479 30.3887 60.3765 30.4219 60.6733 30.4219H62.2026C62.8433 30.4219 63.3472 30.5762 63.7144 30.8848C64.0815 31.1895 64.2632 31.6445 64.2593 32.25C64.2593 32.5977 64.1421 32.9336 63.9077 33.2578C63.6772 33.5859 63.3296 33.8535 62.8647 34.0605C62.3999 34.2676 61.8394 34.3711 61.1831 34.3711ZM61.0835 28.9805C61.4077 28.9805 61.6382 28.8477 61.7749 28.582C61.9116 28.3125 61.98 27.9629 61.98 27.5332C61.98 26.6152 61.6792 26.1562 61.0776 26.1562C60.7534 26.1562 60.5288 26.2832 60.4038 26.5371C60.2788 26.7871 60.2163 27.1309 60.2163 27.5684C60.2163 28.002 60.2788 28.3457 60.4038 28.5996C60.5327 28.8535 60.7593 28.9805 61.0835 28.9805ZM61.3413 33.7969C61.6304 33.7969 61.8999 33.752 62.1499 33.6621C62.3999 33.5762 62.6011 33.4453 62.7534 33.2695C62.9058 33.0977 62.9819 32.8906 62.9819 32.6484C62.9819 32.3867 62.894 32.1758 62.7183 32.0156C62.5425 31.8555 62.2769 31.7754 61.9214 31.7754H60.7319C60.6147 31.7754 60.4604 31.7637 60.269 31.7402C60.0815 31.7207 59.9487 31.6934 59.8706 31.6582C59.8081 31.7793 59.7612 31.8984 59.73 32.0156C59.6987 32.1328 59.6831 32.2891 59.6831 32.4844C59.6831 32.7852 59.7671 33.0332 59.9351 33.2285C60.103 33.4277 60.312 33.5723 60.562 33.6621C60.8159 33.752 61.0757 33.7969 61.3413 33.7969ZM65.314 31.5703C65.2515 31.5703 65.2026 31.5449 65.1675 31.4941C65.1323 31.4395 65.1147 31.3848 65.1147 31.3301C65.1147 31.2637 65.1284 31.2129 65.1558 31.1777C65.187 31.1387 65.2378 31.1172 65.3081 31.1133C65.7573 31.0664 65.9819 30.9551 65.9819 30.7793L65.9878 27.0117C65.9878 26.8281 65.9546 26.6895 65.8882 26.5957C65.8257 26.502 65.7495 26.4395 65.6597 26.4082C65.5698 26.377 65.4546 26.3516 65.314 26.332C65.2944 26.3281 65.2632 26.3242 65.2202 26.3203C65.1772 26.3125 65.1421 26.3047 65.1147 26.2969C65.0679 26.2773 65.0327 26.25 65.0093 26.2148C64.9858 26.1797 64.9741 26.1289 64.9741 26.0625C64.9741 26.0078 64.9858 25.9531 65.0093 25.8984C65.0366 25.8398 65.0718 25.8086 65.1147 25.8047C65.9038 25.7539 66.6694 25.7285 67.4116 25.7285C67.4546 25.7285 67.4937 25.748 67.5288 25.7871C67.564 25.8223 67.5835 25.8809 67.5874 25.9629V30.5859C67.5874 30.7305 67.6226 30.8398 67.6929 30.9141C67.7671 30.9883 67.8511 31.0371 67.9448 31.0605C68.0386 31.0801 68.1577 31.0977 68.3022 31.1133C68.3882 31.1211 68.4448 31.1387 68.4722 31.166C68.4995 31.1895 68.5132 31.2441 68.5132 31.3301C68.5132 31.3809 68.4937 31.4336 68.4546 31.4883C68.4194 31.543 68.3726 31.5703 68.314 31.5703H65.314ZM66.7554 24.709C66.5718 24.709 66.4058 24.668 66.2573 24.5859C66.1128 24.5 65.9976 24.3828 65.9116 24.2344C65.8257 24.082 65.7827 23.9121 65.7827 23.7246C65.7827 23.5371 65.8257 23.3691 65.9116 23.2207C65.9976 23.0684 66.1128 22.9492 66.2573 22.8633C66.4058 22.7773 66.5718 22.7344 66.7554 22.7344C66.9351 22.7344 67.0991 22.7773 67.2476 22.8633C67.396 22.9492 67.5132 23.0684 67.5991 23.2207C67.6851 23.3691 67.728 23.5371 67.728 23.7246C67.728 23.9121 67.6851 24.082 67.5991 24.2344C67.5132 24.3828 67.396 24.5 67.2476 24.5859C67.0991 24.668 66.9351 24.709 66.7554 24.709ZM71.4546 31.7461C70.9077 31.7461 70.4819 31.6328 70.1772 31.4062C69.8765 31.1797 69.7261 30.7988 69.7261 30.2637V26.3438H69.0874C69.0444 26.3398 69.0093 26.3125 68.9819 26.2617C68.9585 26.2109 68.9468 26.1582 68.9468 26.1035C68.9468 26.0293 68.9604 25.9688 68.9878 25.9219C69.0151 25.875 69.0522 25.8477 69.0991 25.8398L69.603 25.6934C69.8101 25.6621 70.0034 25.5117 70.1831 25.2422C70.3628 24.9688 70.5034 24.6016 70.605 24.1406C70.6362 24.0078 70.7651 23.9414 70.9917 23.9414C71.1245 23.9414 71.2163 23.957 71.2671 23.9883C71.3179 24.0156 71.3433 24.0605 71.3433 24.123V25.7461H72.7847C72.8276 25.75 72.8608 25.7715 72.8843 25.8105C72.9116 25.8496 72.9253 25.8945 72.9253 25.9453C72.9253 26.0547 72.9077 26.1465 72.8726 26.2207C72.8374 26.2949 72.7983 26.332 72.7554 26.332H71.3433V29.7715C71.3433 30.0957 71.3647 30.3457 71.4077 30.5215C71.4546 30.6973 71.519 30.8184 71.6011 30.8848C71.6831 30.9512 71.7905 30.9844 71.9233 30.9844C72.2163 30.9844 72.5503 30.8945 72.9253 30.7148C72.9487 30.7148 72.978 30.7422 73.0132 30.7969C73.0522 30.8477 73.0835 30.9023 73.1069 30.9609C73.1304 31.0195 73.1362 31.0625 73.1245 31.0898C73.0347 31.1875 72.8901 31.2871 72.6909 31.3887C72.4956 31.4902 72.2847 31.5742 72.0581 31.6406C71.8315 31.7109 71.6304 31.7461 71.4546 31.7461ZM73.8335 30.1523C73.8335 29.668 74.0112 29.2832 74.3667 28.998C74.7222 28.709 75.1577 28.5 75.6733 28.3711C76.189 28.2383 76.7769 28.1367 77.437 28.0664V27.1172C77.437 26.8008 77.355 26.5645 77.1909 26.4082C77.0269 26.252 76.7808 26.1738 76.4526 26.1738C76.1519 26.1738 75.939 26.207 75.814 26.2734L74.9585 27.791C74.6968 27.791 74.4839 27.7227 74.3198 27.5859C74.1597 27.4492 74.0796 27.2578 74.0796 27.0117C74.0796 26.7266 74.2104 26.4805 74.4722 26.2734C74.7378 26.0625 75.0737 25.9023 75.48 25.793C75.8862 25.6836 76.2944 25.6289 76.7046 25.6289C77.5405 25.6289 78.146 25.7891 78.521 26.1094C78.8999 26.4258 79.0894 26.8398 79.0894 27.3516V30.4043C79.0894 30.5605 79.1108 30.6953 79.1538 30.8086C79.1968 30.918 79.2495 30.9727 79.312 30.9727C79.3628 30.9727 79.4604 30.959 79.605 30.9316C79.6909 30.916 79.7378 30.9082 79.7456 30.9082C79.8042 30.9082 79.8491 30.9414 79.8804 31.0078C79.9116 31.0703 79.9272 31.1387 79.9272 31.2129C79.9272 31.2598 79.9155 31.293 79.8921 31.3125C79.7749 31.3945 79.5757 31.4805 79.2944 31.5703C79.0171 31.6602 78.7124 31.7051 78.3804 31.7051C78.0444 31.7051 77.8218 31.6348 77.7124 31.4941C77.603 31.3535 77.5483 31.1719 77.5483 30.9492V30.9199C77.0483 31.4434 76.3804 31.7051 75.5444 31.7051C75.2827 31.7051 75.021 31.6504 74.7593 31.541C74.4976 31.4316 74.2769 31.2617 74.0972 31.0312C73.9214 30.7969 73.8335 30.5039 73.8335 30.1523ZM75.5679 30.0996C75.5679 30.3262 75.6382 30.5215 75.7788 30.6855C75.9194 30.8457 76.1128 30.9258 76.3589 30.9258C76.605 30.9258 76.8179 30.8809 76.9976 30.791C77.1772 30.6973 77.3237 30.5879 77.437 30.4629V28.5176C77.0425 28.5762 76.7144 28.6523 76.4526 28.7461C76.1948 28.8359 75.9819 28.9883 75.814 29.2031C75.6499 29.418 75.5679 29.7168 75.5679 30.0996ZM80.5073 31.5703C80.4487 31.5703 80.3999 31.5449 80.3608 31.4941C80.3218 31.4395 80.3022 31.3848 80.3022 31.3301C80.3022 31.2637 80.3159 31.2129 80.3433 31.1777C80.3745 31.1387 80.4253 31.1172 80.4956 31.1133C80.6792 31.0977 80.8374 31.0645 80.9702 31.0137C81.1069 30.959 81.1753 30.8809 81.1753 30.7793L81.1812 23.7656C81.1812 23.5859 81.144 23.4492 81.0698 23.3555C80.9956 23.2578 80.9077 23.1934 80.8062 23.1621C80.7046 23.127 80.5776 23.0996 80.4253 23.0801C80.3003 23.0605 80.228 23.0488 80.2085 23.0449C80.1616 23.0254 80.1265 22.998 80.103 22.9629C80.0796 22.9277 80.0679 22.877 80.0679 22.8105C80.0679 22.7559 80.0796 22.7012 80.103 22.6465C80.1304 22.5879 80.1655 22.5566 80.2085 22.5527C80.9897 22.5059 81.7729 22.4824 82.5581 22.4824C82.6011 22.4824 82.6401 22.502 82.6753 22.541C82.7104 22.5762 82.73 22.6348 82.7339 22.7168V30.5859C82.7339 30.7305 82.769 30.8398 82.8394 30.9141C82.9136 30.9883 82.9976 31.0371 83.0913 31.0605C83.1851 31.0801 83.3042 31.0977 83.4487 31.1133C83.5347 31.1211 83.5913 31.1387 83.6187 31.166C83.646 31.1934 83.6597 31.2461 83.6597 31.3242C83.6597 31.3828 83.6401 31.4395 83.6011 31.4941C83.5659 31.5449 83.5171 31.5703 83.4546 31.5703H80.5073ZM87.5854 31.2715C87.5854 31.2051 87.5991 31.1543 87.6265 31.1191C87.6538 31.084 87.7046 31.0625 87.7788 31.0547C88.0132 31.0352 88.2144 30.998 88.3823 30.9434C88.5503 30.8848 88.6343 30.7969 88.6343 30.6797V24.3398C88.6343 24.1875 88.5894 24.0723 88.4995 23.9941C88.4097 23.916 88.3101 23.8652 88.2007 23.8418C88.0952 23.8184 87.9429 23.7949 87.7437 23.7715C87.6577 23.7637 87.6011 23.748 87.5737 23.7246C87.5464 23.6973 87.5327 23.6406 87.5327 23.5547C87.5327 23.4961 87.5503 23.4316 87.5854 23.3613C87.6245 23.291 87.6733 23.2559 87.7319 23.2559H94.1772L94.3823 25.1602C94.3862 25.2188 94.3589 25.2676 94.3003 25.3066C94.2417 25.3418 94.1851 25.3594 94.1304 25.3594C93.9272 25.3594 93.7905 25.2949 93.7202 25.166L93.4858 24.7031C93.3726 24.4688 93.2788 24.2969 93.2046 24.1875C93.1343 24.0781 93.0483 23.9922 92.9468 23.9297C92.8452 23.8672 92.7124 23.8359 92.5483 23.8359H90.3569V27.0117H91.8569C91.9507 27 92.0405 26.9316 92.1265 26.8066C92.2124 26.6816 92.2847 26.541 92.3433 26.3848C92.4019 26.2246 92.437 26.0996 92.4487 26.0098C92.4644 25.8848 92.5542 25.8223 92.7183 25.8223C92.7769 25.8223 92.8413 25.8418 92.9116 25.8809C92.9819 25.916 93.0171 25.9629 93.0171 26.0215V28.6172C93.0171 28.6758 92.9819 28.7246 92.9116 28.7637C92.8413 28.7988 92.7769 28.8164 92.7183 28.8164C92.644 28.8164 92.5796 28.8027 92.5249 28.7754C92.4702 28.7441 92.439 28.6934 92.4312 28.623C92.4233 28.5254 92.3901 28.3926 92.3315 28.2246C92.2729 28.0527 92.1987 27.9023 92.1089 27.7734C92.019 27.6406 91.9233 27.5742 91.8218 27.5742H90.3569V30.416C90.3569 30.7598 90.5347 30.9473 90.8901 30.9785H92.5718C92.8101 30.9785 93.019 30.9277 93.1987 30.8262C93.3823 30.7207 93.5503 30.5527 93.7026 30.3223C93.855 30.0918 94.0073 29.7793 94.1597 29.3848C94.1831 29.3184 94.2358 29.2695 94.3179 29.2383C94.3999 29.207 94.48 29.1914 94.5581 29.1914C94.6401 29.1914 94.7144 29.209 94.7808 29.2441C94.8511 29.2793 94.8901 29.3281 94.8979 29.3906L94.6401 31.5703H87.7847C87.7261 31.5703 87.6772 31.5352 87.6382 31.4648C87.603 31.3945 87.5854 31.3301 87.5854 31.2715ZM95.9116 30.1523C95.9116 29.668 96.0894 29.2832 96.4448 28.998C96.8003 28.709 97.2358 28.5 97.7515 28.3711C98.2671 28.2383 98.855 28.1367 99.5151 28.0664V27.1172C99.5151 26.8008 99.4331 26.5645 99.269 26.4082C99.105 26.252 98.8589 26.1738 98.5308 26.1738C98.23 26.1738 98.0171 26.207 97.8921 26.2734L97.0366 27.791C96.7749 27.791 96.562 27.7227 96.3979 27.5859C96.2378 27.4492 96.1577 27.2578 96.1577 27.0117C96.1577 26.7266 96.2886 26.4805 96.5503 26.2734C96.8159 26.0625 97.1519 25.9023 97.5581 25.793C97.9644 25.6836 98.3726 25.6289 98.7827 25.6289C99.6187 25.6289 100.224 25.7891 100.599 26.1094C100.978 26.4258 101.167 26.8398 101.167 27.3516V30.4043C101.167 30.5605 101.189 30.6953 101.232 30.8086C101.275 30.918 101.328 30.9727 101.39 30.9727C101.441 30.9727 101.539 30.959 101.683 30.9316C101.769 30.916 101.816 30.9082 101.824 30.9082C101.882 30.9082 101.927 30.9414 101.958 31.0078C101.99 31.0703 102.005 31.1387 102.005 31.2129C102.005 31.2598 101.994 31.293 101.97 31.3125C101.853 31.3945 101.654 31.4805 101.373 31.5703C101.095 31.6602 100.791 31.7051 100.458 31.7051C100.123 31.7051 99.8999 31.6348 99.7905 31.4941C99.6812 31.3535 99.6265 31.1719 99.6265 30.9492V30.9199C99.1265 31.4434 98.4585 31.7051 97.6226 31.7051C97.3608 31.7051 97.0991 31.6504 96.8374 31.541C96.5757 31.4316 96.355 31.2617 96.1753 31.0312C95.9995 30.7969 95.9116 30.5039 95.9116 30.1523ZM97.646 30.0996C97.646 30.3262 97.7163 30.5215 97.8569 30.6855C97.9976 30.8457 98.1909 30.9258 98.437 30.9258C98.6831 30.9258 98.896 30.8809 99.0757 30.791C99.2554 30.6973 99.4019 30.5879 99.5151 30.4629V28.5176C99.1206 28.5762 98.7925 28.6523 98.5308 28.7461C98.2729 28.8359 98.0601 28.9883 97.8921 29.2031C97.728 29.418 97.646 29.7168 97.646 30.0996ZM105.011 31.7402C104.734 31.7402 104.494 31.7109 104.291 31.6523C104.091 31.5938 103.886 31.5215 103.675 31.4355C103.582 31.3965 103.501 31.377 103.435 31.377C103.376 31.377 103.33 31.3867 103.294 31.4062C103.263 31.4219 103.232 31.4453 103.201 31.4766C103.166 31.5078 103.13 31.5332 103.095 31.5527C103.06 31.5684 103.011 31.5762 102.949 31.5762C102.871 31.5762 102.804 31.5586 102.75 31.5234C102.699 31.4883 102.673 31.4434 102.673 31.3887C102.673 31.2715 102.669 31.1406 102.662 30.9961C102.654 30.8516 102.648 30.7129 102.644 30.5801C102.621 30.1035 102.609 29.8027 102.609 29.6777C102.609 29.5918 102.634 29.5293 102.685 29.4902C102.74 29.4473 102.804 29.4258 102.878 29.4258C102.941 29.4258 102.994 29.4375 103.037 29.4609C103.083 29.4844 103.113 29.5156 103.125 29.5547C103.16 29.6836 103.197 29.8047 103.236 29.918C103.279 30.0312 103.349 30.1855 103.447 30.3809C103.564 30.6113 103.753 30.8125 104.015 30.9844C104.281 31.1562 104.587 31.2422 104.935 31.2422C105.271 31.2422 105.539 31.1797 105.738 31.0547C105.941 30.9297 106.042 30.75 106.042 30.5156C106.042 30.3242 105.984 30.1602 105.867 30.0234C105.75 29.8828 105.576 29.7539 105.345 29.6367C105.115 29.5156 104.791 29.375 104.373 29.2148C103.904 29.0234 103.519 28.7832 103.218 28.4941C102.921 28.2051 102.773 27.8281 102.773 27.3633C102.773 27.0312 102.878 26.7324 103.089 26.4668C103.3 26.2012 103.582 25.9961 103.933 25.8516C104.285 25.7031 104.666 25.6289 105.076 25.6289C105.294 25.6289 105.488 25.6504 105.656 25.6934C105.824 25.7324 105.994 25.7832 106.166 25.8457C106.294 25.8926 106.378 25.916 106.417 25.916C106.476 25.916 106.515 25.9062 106.535 25.8867C106.558 25.8633 106.576 25.8359 106.587 25.8047C106.599 25.7695 106.611 25.7422 106.623 25.7227C106.646 25.6836 106.681 25.6543 106.728 25.6348C106.775 25.6113 106.826 25.5996 106.88 25.5996C106.958 25.5996 107.025 25.6191 107.08 25.6582C107.138 25.6934 107.167 25.7422 107.167 25.8047C107.167 25.8516 107.166 25.8965 107.162 25.9395C107.154 26.1426 107.15 26.3594 107.15 26.5898C107.15 26.625 107.156 26.7656 107.167 27.0117C107.175 27.1367 107.179 27.2188 107.179 27.2578C107.179 27.3555 107.154 27.4277 107.103 27.4746C107.056 27.5215 106.994 27.5449 106.916 27.5449C106.861 27.5449 106.812 27.5352 106.769 27.5156C106.726 27.4922 106.699 27.4648 106.687 27.4336C106.601 27.1992 106.505 26.9922 106.4 26.8125C106.298 26.6328 106.142 26.4746 105.931 26.3379C105.724 26.2012 105.458 26.1328 105.134 26.1328C104.876 26.1328 104.66 26.1895 104.484 26.3027C104.312 26.416 104.226 26.5898 104.226 26.8242C104.226 27.0742 104.333 27.2852 104.548 27.457C104.767 27.625 105.109 27.7949 105.574 27.9668C105.98 28.1191 106.328 28.2773 106.617 28.4414C106.906 28.6055 107.14 28.8105 107.32 29.0566C107.503 29.3027 107.595 29.5938 107.595 29.9297C107.595 30.5039 107.371 30.9492 106.921 31.2656C106.476 31.582 105.839 31.7402 105.011 31.7402ZM109.517 34.2012C109.33 34.2012 109.144 34.1602 108.96 34.0781C108.781 34 108.632 33.8906 108.515 33.75C108.402 33.6133 108.345 33.4629 108.345 33.2988C108.345 33.0762 108.404 32.9004 108.521 32.7715C108.642 32.6426 108.787 32.5781 108.955 32.5781L109.634 33.3105C109.814 33.3066 109.974 33.252 110.115 33.1465C110.259 33.041 110.4 32.8809 110.537 32.666C110.673 32.4512 110.832 32.1543 111.011 31.7754L108.744 26.7129C108.65 26.5254 108.548 26.3984 108.439 26.332C108.33 26.2617 108.193 26.2188 108.029 26.2031C107.943 26.1953 107.886 26.1797 107.859 26.1562C107.832 26.1289 107.818 26.0723 107.818 25.9863C107.818 25.9316 107.835 25.8789 107.871 25.8281C107.906 25.7734 107.953 25.7461 108.011 25.7461H111.035C111.097 25.7461 111.146 25.7734 111.181 25.8281C111.216 25.8789 111.234 25.9316 111.234 25.9863C111.234 26.0527 111.22 26.1035 111.193 26.1387C111.166 26.1738 111.115 26.1953 111.041 26.2031C110.841 26.2266 110.685 26.2559 110.572 26.291C110.462 26.3223 110.408 26.3848 110.408 26.4785L111.791 30.082L113.027 26.4785C113.027 26.3848 112.966 26.3223 112.845 26.291C112.728 26.2559 112.566 26.2266 112.359 26.2031C112.285 26.1953 112.234 26.1738 112.207 26.1387C112.179 26.1035 112.166 26.0527 112.166 25.9863C112.166 25.9316 112.183 25.8789 112.218 25.8281C112.253 25.7734 112.302 25.7461 112.365 25.7461H114.404C114.462 25.7461 114.509 25.7734 114.544 25.8281C114.583 25.8828 114.603 25.9355 114.603 25.9863C114.603 26.0723 114.589 26.1289 114.562 26.1562C114.535 26.1797 114.478 26.1953 114.392 26.2031C114.236 26.2188 114.111 26.2598 114.017 26.3262C113.923 26.3926 113.83 26.5215 113.736 26.7129L112.054 30.9785C112.015 31.0762 111.99 31.1367 111.978 31.1602C111.708 31.832 111.472 32.3691 111.269 32.7715C111.07 33.1738 110.824 33.5117 110.531 33.7852C110.242 34.0625 109.904 34.2012 109.517 34.2012Z" fill="#212529"/>
</svg>
