<svg width="14" height="14" viewBox="0 0 14 14" fill="none" xmlns="http://www.w3.org/2000/svg">
<path d="M1.75 3.5H2.91667H12.25" stroke="black" stroke-linecap="round" stroke-linejoin="round"/>
<path d="M11.0833 3.50008V11.6667C11.0833 11.9762 10.9604 12.2729 10.7416 12.4917C10.5228 12.7105 10.226 12.8334 9.91663 12.8334H4.08329C3.77387 12.8334 3.47713 12.7105 3.25833 12.4917C3.03954 12.2729 2.91663 11.9762 2.91663 11.6667V3.50008M4.66663 3.50008V2.33341C4.66663 2.024 4.78954 1.72725 5.00834 1.50846C5.22713 1.28966 5.52387 1.16675 5.83329 1.16675H8.16663C8.47605 1.16675 8.77279 1.28966 8.99158 1.50846C9.21038 1.72725 9.33329 2.024 9.33329 2.33341V3.50008" stroke="black" stroke-linecap="round" stroke-linejoin="round"/>
<path d="M5.83337 6.41675V9.91675" stroke="black" stroke-linecap="round" stroke-linejoin="round"/>
<path d="M8.16663 6.41675V9.91675" stroke="black" stroke-linecap="round" stroke-linejoin="round"/>
</svg>
