<svg width="116" height="41" viewBox="0 0 116 41" fill="none" xmlns="http://www.w3.org/2000/svg">
<path d="M0.633301 0.429688C2.61744 1.22431 4.69895 1.74999 6.82247 1.99274C9.51142 1.70282 13.5864 2.04316 15.0371 1.99274C31.2726 2.11022 33.2264 0.732213 38.7853 6.02641C43.5415 10.5542 42.9622 17.96 42.9869 24.968C43.0166 33.2209 42.9869 40.7664 42.9869 40.7664C42.9869 40.7664 35.5246 40.5784 27.0201 40.7664C19.7645 40.9273 11.7108 41.8086 6.73423 37.0691C2.34005 32.8841 2.78123 26.4469 2.72073 18.309C2.48829 13.0092 2.34307 4.01865 2.20038 3.21948C2.00908 2.1389 1.45656 1.15529 0.633301 0.429688Z" fill="#0011FF"/>
<path d="M5.8011 8.49707H2.01953V12.2786H5.8011V8.49707Z" fill="white"/>
<path d="M9.33113 4.96777H5.54956V8.74934H9.33113V4.96777Z" fill="white"/>
<path d="M12.8604 1.43774H9.07886V5.21931H12.8604V1.43774Z" fill="white"/>
<path d="M5.8011 4.96777H2.01953V8.74934H5.8011V4.96777Z" fill="#0011FF"/>
<path d="M5.8011 1.43774H2.01953V5.21931H5.8011V1.43774Z" fill="white"/>
<path d="M9.33113 1.56421H5.54956V5.34578H9.33113V1.56421Z" fill="#0011FF"/>
<path d="M4.41487 0.429688H0.633301V3.95915H4.41487V0.429688Z" fill="#0011FF"/>
<path d="M19.6587 23.3674C19.6587 21.1541 21.4529 19.3599 23.6662 19.3599V24.2261C23.6662 25.3328 22.7691 26.2299 21.6624 26.2299C20.5558 26.2299 19.6587 25.3328 19.6587 24.2261V23.3674Z" fill="white"/>
<path d="M24.2383 15.9247C24.2383 13.7115 26.0325 11.9172 28.2458 11.9172V23.3673C28.2458 25.5805 26.4516 27.3748 24.2383 27.3748V22.5085V15.9247Z" fill="white"/>
<path d="M18.626 19.3599C14.275 23.0239 16.8131 26.2299 18.626 27.3749H20.6298C16.9658 23.7109 19.1031 20.5049 20.6298 19.3599H18.626Z" fill="white"/>
<path d="M21.0898 27.6613L23.3798 26.5163C24.7792 30.9943 27.9846 25.7307 30.9092 22.7115C30.979 22.6276 31.0455 22.5593 31.1086 22.5088C31.0423 22.5751 30.9758 22.6427 30.9092 22.7115C29.3952 24.5304 26.2888 33.6811 21.0898 27.6613Z" fill="white"/>
<rect x="22.5205" y="19.9321" width="0.572501" height="0.572501" fill="#0011FF"/>
<rect x="21.9485" y="19.3596" width="0.572501" height="0.572501" fill="#0011FF"/>
<rect x="23.0935" y="19.3596" width="0.572501" height="0.572501" fill="#0011FF"/>
<rect x="21.9485" y="20.5049" width="0.572501" height="0.572501" fill="#0011FF"/>
<rect x="21.376" y="19.9321" width="0.572501" height="0.572501" fill="#0011FF"/>
<rect x="20.803" y="20.5049" width="0.572501" height="0.572501" fill="#0011FF"/>
<rect x="20.231" y="21.0771" width="0.572501" height="0.572501" fill="#0011FF"/>
<rect x="19.6584" y="21.6497" width="0.572501" height="0.572501" fill="#0011FF"/>
<rect x="19.6584" y="22.7947" width="0.572501" height="0.572501" fill="#0011FF"/>
<rect x="19.6584" y="23.9399" width="0.572501" height="0.572501" fill="#0011FF"/>
<rect x="20.231" y="24.5125" width="0.572501" height="0.572501" fill="#0011FF"/>
<rect x="20.803" y="25.085" width="0.572501" height="0.572501" fill="#0011FF"/>
<rect x="21.376" y="25.6572" width="0.572501" height="0.572501" fill="#0011FF"/>
<rect x="19.6584" y="25.085" width="0.572501" height="0.572501" fill="#0011FF"/>
<rect x="20.231" y="25.6572" width="0.572501" height="0.572501" fill="#0011FF"/>
<rect x="20.231" y="23.3669" width="0.572501" height="0.572501" fill="#0011FF"/>
<rect x="20.803" y="23.9399" width="0.572501" height="0.572501" fill="#0011FF"/>
<rect x="21.376" y="24.5125" width="0.572501" height="0.572501" fill="#0011FF"/>
<rect x="21.9485" y="25.085" width="0.572501" height="0.572501" fill="#0011FF"/>
<rect x="22.5205" y="25.6572" width="0.572501" height="0.572501" fill="#0011FF"/>
<rect x="21.9485" y="23.9399" width="0.572501" height="0.572501" fill="#0011FF"/>
<rect x="22.5205" y="24.5125" width="0.572501" height="0.572501" fill="#0011FF"/>
<rect x="23.0935" y="25.085" width="0.572501" height="0.572501" fill="#0011FF"/>
<rect x="20.231" y="22.2219" width="0.572501" height="0.572501" fill="#0011FF"/>
<rect x="20.803" y="22.7947" width="0.572501" height="0.572501" fill="#0011FF"/>
<rect x="21.376" y="23.3669" width="0.572501" height="0.572501" fill="#0011FF"/>
<rect x="20.803" y="21.6497" width="0.572501" height="0.572501" fill="#0011FF"/>
<rect x="21.376" y="22.2219" width="0.572501" height="0.572501" fill="#0011FF"/>
<rect x="21.9485" y="22.7947" width="0.572501" height="0.572501" fill="#0011FF"/>
<rect x="22.5205" y="23.3669" width="0.572501" height="0.572501" fill="#0011FF"/>
<rect x="23.0935" y="23.9399" width="0.572501" height="0.572501" fill="#0011FF"/>
<rect x="21.376" y="21.0771" width="0.572501" height="0.572501" fill="#0011FF"/>
<rect x="21.9485" y="21.6497" width="0.572501" height="0.572501" fill="#0011FF"/>
<rect x="22.5205" y="22.2219" width="0.572501" height="0.572501" fill="#0011FF"/>
<rect x="23.0935" y="22.7947" width="0.572501" height="0.572501" fill="#0011FF"/>
<rect x="22.5205" y="21.0771" width="0.572501" height="0.572501" fill="#0011FF"/>
<rect x="23.0935" y="21.6497" width="0.572501" height="0.572501" fill="#0011FF"/>
<rect x="23.0935" y="20.5049" width="0.572501" height="0.572501" fill="#0011FF"/>
<path d="M46.428 8.984L45.48 8.828V8.084H48.204L51.78 13.484L52.452 14.852V8.984L51.42 8.828V8.084H54.396V8.828L53.472 8.984V17H52.02L48.288 11.324L47.448 9.74V16.16L48.66 16.28V17H45.48V16.28L46.428 16.16V8.984ZM55.1728 13.676C55.1728 12.924 55.3208 12.284 55.6168 11.756C55.9208 11.228 56.3248 10.832 56.8288 10.568C57.3328 10.296 57.8808 10.16 58.4728 10.16C59.4808 10.16 60.2568 10.472 60.8008 11.096C61.3528 11.712 61.6288 12.552 61.6288 13.616C61.6288 14.376 61.4768 15.024 61.1728 15.56C60.8768 16.088 60.4768 16.484 59.9728 16.748C59.4768 17.004 58.9288 17.132 58.3288 17.132C57.3288 17.132 56.5528 16.824 56.0008 16.208C55.4488 15.584 55.1728 14.74 55.1728 13.676ZM58.4248 16.352C59.3288 16.352 59.7808 15.48 59.7808 13.736C59.7808 12.824 59.6728 12.132 59.4568 11.66C59.2408 11.18 58.8888 10.94 58.4008 10.94C57.4728 10.94 57.0088 11.812 57.0088 13.556C57.0088 14.468 57.1208 15.164 57.3448 15.644C57.5768 16.116 57.9368 16.352 58.4248 16.352ZM62.0117 10.34H65.1077V11.024L64.2677 11.168L65.1557 14.36L65.4437 15.668L65.7077 14.348L66.7877 10.34H68.2397L69.4277 14.348L69.7157 15.668L70.0037 14.36L70.8437 11.18L69.9677 11.024V10.34H72.5357V11.024L71.9237 11.156L70.0997 17.096H68.7197L67.5077 13.208L67.2317 11.78L67.0157 13.208L65.8997 17.096H64.5077L62.5877 11.156L62.0117 11.024V10.34Z" fill="#212529"/>
<path d="M45.8379 32C45.7793 32 45.7305 31.9648 45.6914 31.8945C45.6562 31.8242 45.6387 31.7598 45.6387 31.7012C45.6387 31.6348 45.6523 31.584 45.6797 31.5488C45.707 31.5137 45.7578 31.4922 45.832 31.4844C46.0664 31.4648 46.2656 31.4277 46.4297 31.373C46.5977 31.3145 46.6816 31.2266 46.6816 31.1094V24.7695C46.6816 24.6172 46.6367 24.502 46.5469 24.4238C46.457 24.3457 46.3574 24.2949 46.248 24.2715C46.1426 24.248 45.9902 24.2246 45.791 24.2012C45.7051 24.1934 45.6484 24.1777 45.6211 24.1543C45.5938 24.127 45.5801 24.0703 45.5801 23.9844C45.5801 23.9258 45.5977 23.8613 45.6328 23.791C45.6719 23.7207 45.7207 23.6855 45.7793 23.6855H49.6641C50.6797 23.6895 51.5312 23.877 52.2188 24.248C52.9062 24.6191 53.416 25.1074 53.748 25.7129C54.084 26.3145 54.252 26.9688 54.252 27.6758C54.252 28.6289 54.0332 29.4316 53.5957 30.084C53.1621 30.7324 52.6211 31.2148 51.9727 31.5312C51.3242 31.8438 50.6816 32 50.0449 32H45.8379ZM48.416 31.0156C48.416 31.1211 48.5039 31.2129 48.6797 31.291C48.8594 31.3691 49.1777 31.4082 49.6348 31.4082C50.1934 31.4082 50.6562 31.3242 51.0234 31.1562C51.3906 30.9883 51.6855 30.6348 51.9082 30.0957C52.1348 29.5566 52.248 28.7578 52.248 27.6992C52.248 26.7852 52.127 26.0762 51.8848 25.5723C51.6426 25.0645 51.3262 24.7188 50.9355 24.5352C50.5449 24.3477 50.0918 24.2539 49.5762 24.2539H48.4219L48.416 31.0156ZM55.2832 32C55.2207 32 55.1719 31.9746 55.1367 31.9238C55.1016 31.8691 55.084 31.8145 55.084 31.7598C55.084 31.6934 55.0977 31.6426 55.125 31.6074C55.1562 31.5684 55.207 31.5469 55.2773 31.543C55.7266 31.4961 55.9512 31.3848 55.9512 31.209L55.957 27.4414C55.957 27.2578 55.9238 27.1191 55.8574 27.0254C55.7949 26.9316 55.7188 26.8691 55.6289 26.8379C55.5391 26.8066 55.4238 26.7812 55.2832 26.7617C55.2637 26.7578 55.2324 26.7539 55.1895 26.75C55.1465 26.7422 55.1113 26.7344 55.084 26.7266C55.0371 26.707 55.002 26.6797 54.9785 26.6445C54.9551 26.6094 54.9434 26.5586 54.9434 26.4922C54.9434 26.4375 54.9551 26.3828 54.9785 26.3281C55.0059 26.2695 55.041 26.2383 55.084 26.2344C55.873 26.1836 56.6387 26.1582 57.3809 26.1582C57.4238 26.1582 57.4629 26.1777 57.498 26.2168C57.5332 26.252 57.5527 26.3105 57.5566 26.3926V31.0156C57.5566 31.1602 57.5918 31.2695 57.6621 31.3438C57.7363 31.418 57.8203 31.4668 57.9141 31.4902C58.0078 31.5098 58.127 31.5273 58.2715 31.543C58.3574 31.5508 58.4141 31.5684 58.4414 31.5957C58.4688 31.6191 58.4824 31.6738 58.4824 31.7598C58.4824 31.8105 58.4629 31.8633 58.4238 31.918C58.3887 31.9727 58.3418 32 58.2832 32H55.2832ZM56.7246 25.1387C56.541 25.1387 56.375 25.0977 56.2266 25.0156C56.082 24.9297 55.9668 24.8125 55.8809 24.6641C55.7949 24.5117 55.752 24.3418 55.752 24.1543C55.752 23.9668 55.7949 23.7988 55.8809 23.6504C55.9668 23.498 56.082 23.3789 56.2266 23.293C56.375 23.207 56.541 23.1641 56.7246 23.1641C56.9043 23.1641 57.0684 23.207 57.2168 23.293C57.3652 23.3789 57.4824 23.498 57.5684 23.6504C57.6543 23.7988 57.6973 23.9668 57.6973 24.1543C57.6973 24.3418 57.6543 24.5117 57.5684 24.6641C57.4824 24.8125 57.3652 24.9297 57.2168 25.0156C57.0684 25.0977 56.9043 25.1387 56.7246 25.1387ZM61.8164 34.8008C61.3047 34.8008 60.832 34.7402 60.3984 34.6191C59.9648 34.498 59.6152 34.3145 59.3496 34.0684C59.0879 33.8223 58.957 33.5215 58.957 33.166C58.957 32.5605 59.3184 32.1445 60.041 31.918C59.748 31.7969 59.5469 31.6504 59.4375 31.4785C59.332 31.3027 59.2793 31.0957 59.2793 30.8574C59.2793 30.5918 59.3848 30.3516 59.5957 30.1367C59.8066 29.918 60.0586 29.7637 60.3516 29.6738C59.9922 29.5098 59.7246 29.2773 59.5488 28.9766C59.377 28.6719 59.291 28.3418 59.291 27.9863C59.291 27.6113 59.3848 27.2793 59.5723 26.9902C59.7637 26.6973 60.0469 26.4688 60.4219 26.3047C60.8008 26.1406 61.2598 26.0586 61.7988 26.0586C62.1855 26.0586 62.5098 26.1016 62.7715 26.1875C63.0371 26.2734 63.2734 26.4004 63.4805 26.5684C63.6094 26.416 63.7617 26.291 63.9375 26.1934C64.1172 26.0918 64.3008 26.041 64.4883 26.041C64.75 26.041 64.9688 26.1211 65.1445 26.2812C65.3203 26.4414 65.4082 26.6699 65.4082 26.9668C65.4082 27.2051 65.3633 27.3867 65.2734 27.5117C65.1875 27.6367 65.0605 27.6992 64.8926 27.6992L64.207 26.6914C64.1094 26.6953 64.0273 26.7109 63.9609 26.7383C63.8984 26.7656 63.834 26.8086 63.7676 26.8672C63.998 27.1875 64.1133 27.5547 64.1133 27.9688C64.1133 28.3477 64.0254 28.6855 63.8496 28.9824C63.6777 29.2793 63.4102 29.5137 63.0469 29.6855C62.6836 29.8535 62.2305 29.9375 61.6875 29.9375C61.2773 29.9375 60.9531 29.9004 60.7148 29.8262C60.6094 29.8887 60.5273 29.9727 60.4688 30.0781C60.4102 30.1836 60.3809 30.293 60.3809 30.4062C60.3809 30.5703 60.4609 30.6855 60.6211 30.752C60.7812 30.8184 61.0098 30.8516 61.3066 30.8516H62.8359C63.4766 30.8516 63.9805 31.0059 64.3477 31.3145C64.7148 31.6191 64.8965 32.0742 64.8926 32.6797C64.8926 33.0273 64.7754 33.3633 64.541 33.6875C64.3105 34.0156 63.9629 34.2832 63.498 34.4902C63.0332 34.6973 62.4727 34.8008 61.8164 34.8008ZM61.7168 29.4102C62.041 29.4102 62.2715 29.2773 62.4082 29.0117C62.5449 28.7422 62.6133 28.3926 62.6133 27.9629C62.6133 27.0449 62.3125 26.5859 61.7109 26.5859C61.3867 26.5859 61.1621 26.7129 61.0371 26.9668C60.9121 27.2168 60.8496 27.5605 60.8496 27.998C60.8496 28.4316 60.9121 28.7754 61.0371 29.0293C61.166 29.2832 61.3926 29.4102 61.7168 29.4102ZM61.9746 34.2266C62.2637 34.2266 62.5332 34.1816 62.7832 34.0918C63.0332 34.0059 63.2344 33.875 63.3867 33.6992C63.5391 33.5273 63.6152 33.3203 63.6152 33.0781C63.6152 32.8164 63.5273 32.6055 63.3516 32.4453C63.1758 32.2852 62.9102 32.2051 62.5547 32.2051H61.3652C61.248 32.2051 61.0938 32.1934 60.9023 32.1699C60.7148 32.1504 60.582 32.123 60.5039 32.0879C60.4414 32.209 60.3945 32.3281 60.3633 32.4453C60.332 32.5625 60.3164 32.7188 60.3164 32.9141C60.3164 33.2148 60.4004 33.4629 60.5684 33.6582C60.7363 33.8574 60.9453 34.002 61.1953 34.0918C61.4492 34.1816 61.709 34.2266 61.9746 34.2266ZM65.9473 32C65.8848 32 65.8359 31.9746 65.8008 31.9238C65.7656 31.8691 65.748 31.8145 65.748 31.7598C65.748 31.6934 65.7617 31.6426 65.7891 31.6074C65.8203 31.5684 65.8711 31.5469 65.9414 31.543C66.3906 31.4961 66.6152 31.3848 66.6152 31.209L66.6211 27.4414C66.6211 27.2578 66.5879 27.1191 66.5215 27.0254C66.459 26.9316 66.3828 26.8691 66.293 26.8379C66.2031 26.8066 66.0879 26.7812 65.9473 26.7617C65.9277 26.7578 65.8965 26.7539 65.8535 26.75C65.8105 26.7422 65.7754 26.7344 65.748 26.7266C65.7012 26.707 65.666 26.6797 65.6426 26.6445C65.6191 26.6094 65.6074 26.5586 65.6074 26.4922C65.6074 26.4375 65.6191 26.3828 65.6426 26.3281C65.6699 26.2695 65.7051 26.2383 65.748 26.2344C66.5371 26.1836 67.3027 26.1582 68.0449 26.1582C68.0879 26.1582 68.127 26.1777 68.1621 26.2168C68.1973 26.252 68.2168 26.3105 68.2207 26.3926V31.0156C68.2207 31.1602 68.2559 31.2695 68.3262 31.3438C68.4004 31.418 68.4844 31.4668 68.5781 31.4902C68.6719 31.5098 68.791 31.5273 68.9355 31.543C69.0215 31.5508 69.0781 31.5684 69.1055 31.5957C69.1328 31.6191 69.1465 31.6738 69.1465 31.7598C69.1465 31.8105 69.127 31.8633 69.0879 31.918C69.0527 31.9727 69.0059 32 68.9473 32H65.9473ZM67.3887 25.1387C67.2051 25.1387 67.0391 25.0977 66.8906 25.0156C66.7461 24.9297 66.6309 24.8125 66.5449 24.6641C66.459 24.5117 66.416 24.3418 66.416 24.1543C66.416 23.9668 66.459 23.7988 66.5449 23.6504C66.6309 23.498 66.7461 23.3789 66.8906 23.293C67.0391 23.207 67.2051 23.1641 67.3887 23.1641C67.5684 23.1641 67.7324 23.207 67.8809 23.293C68.0293 23.3789 68.1465 23.498 68.2324 23.6504C68.3184 23.7988 68.3613 23.9668 68.3613 24.1543C68.3613 24.3418 68.3184 24.5117 68.2324 24.6641C68.1465 24.8125 68.0293 24.9297 67.8809 25.0156C67.7324 25.0977 67.5684 25.1387 67.3887 25.1387ZM72.0879 32.1758C71.541 32.1758 71.1152 32.0625 70.8105 31.8359C70.5098 31.6094 70.3594 31.2285 70.3594 30.6934V26.7734H69.7207C69.6777 26.7695 69.6426 26.7422 69.6152 26.6914C69.5918 26.6406 69.5801 26.5879 69.5801 26.5332C69.5801 26.459 69.5938 26.3984 69.6211 26.3516C69.6484 26.3047 69.6855 26.2773 69.7324 26.2695L70.2363 26.123C70.4434 26.0918 70.6367 25.9414 70.8164 25.6719C70.9961 25.3984 71.1367 25.0312 71.2383 24.5703C71.2695 24.4375 71.3984 24.3711 71.625 24.3711C71.7578 24.3711 71.8496 24.3867 71.9004 24.418C71.9512 24.4453 71.9766 24.4902 71.9766 24.5527V26.1758H73.418C73.4609 26.1797 73.4941 26.2012 73.5176 26.2402C73.5449 26.2793 73.5586 26.3242 73.5586 26.375C73.5586 26.4844 73.541 26.5762 73.5059 26.6504C73.4707 26.7246 73.4316 26.7617 73.3887 26.7617H71.9766V30.2012C71.9766 30.5254 71.998 30.7754 72.041 30.9512C72.0879 31.127 72.1523 31.248 72.2344 31.3145C72.3164 31.3809 72.4238 31.4141 72.5566 31.4141C72.8496 31.4141 73.1836 31.3242 73.5586 31.1445C73.582 31.1445 73.6113 31.1719 73.6465 31.2266C73.6855 31.2773 73.7168 31.332 73.7402 31.3906C73.7637 31.4492 73.7695 31.4922 73.7578 31.5195C73.668 31.6172 73.5234 31.7168 73.3242 31.8184C73.1289 31.9199 72.918 32.0039 72.6914 32.0703C72.4648 32.1406 72.2637 32.1758 72.0879 32.1758ZM74.4668 30.582C74.4668 30.0977 74.6445 29.7129 75 29.4277C75.3555 29.1387 75.791 28.9297 76.3066 28.8008C76.8223 28.668 77.4102 28.5664 78.0703 28.4961V27.5469C78.0703 27.2305 77.9883 26.9941 77.8242 26.8379C77.6602 26.6816 77.4141 26.6035 77.0859 26.6035C76.7852 26.6035 76.5723 26.6367 76.4473 26.7031L75.5918 28.2207C75.3301 28.2207 75.1172 28.1523 74.9531 28.0156C74.793 27.8789 74.7129 27.6875 74.7129 27.4414C74.7129 27.1562 74.8438 26.9102 75.1055 26.7031C75.3711 26.4922 75.707 26.332 76.1133 26.2227C76.5195 26.1133 76.9277 26.0586 77.3379 26.0586C78.1738 26.0586 78.7793 26.2188 79.1543 26.5391C79.5332 26.8555 79.7227 27.2695 79.7227 27.7812V30.834C79.7227 30.9902 79.7441 31.125 79.7871 31.2383C79.8301 31.3477 79.8828 31.4023 79.9453 31.4023C79.9961 31.4023 80.0938 31.3887 80.2383 31.3613C80.3242 31.3457 80.3711 31.3379 80.3789 31.3379C80.4375 31.3379 80.4824 31.3711 80.5137 31.4375C80.5449 31.5 80.5605 31.5684 80.5605 31.6426C80.5605 31.6895 80.5488 31.7227 80.5254 31.7422C80.4082 31.8242 80.209 31.9102 79.9277 32C79.6504 32.0898 79.3457 32.1348 79.0137 32.1348C78.6777 32.1348 78.4551 32.0645 78.3457 31.9238C78.2363 31.7832 78.1816 31.6016 78.1816 31.3789V31.3496C77.6816 31.873 77.0137 32.1348 76.1777 32.1348C75.916 32.1348 75.6543 32.0801 75.3926 31.9707C75.1309 31.8613 74.9102 31.6914 74.7305 31.4609C74.5547 31.2266 74.4668 30.9336 74.4668 30.582ZM76.2012 30.5293C76.2012 30.7559 76.2715 30.9512 76.4121 31.1152C76.5527 31.2754 76.7461 31.3555 76.9922 31.3555C77.2383 31.3555 77.4512 31.3105 77.6309 31.2207C77.8105 31.127 77.957 31.0176 78.0703 30.8926V28.9473C77.6758 29.0059 77.3477 29.082 77.0859 29.1758C76.8281 29.2656 76.6152 29.418 76.4473 29.6328C76.2832 29.8477 76.2012 30.1465 76.2012 30.5293ZM81.1406 32C81.082 32 81.0332 31.9746 80.9941 31.9238C80.9551 31.8691 80.9355 31.8145 80.9355 31.7598C80.9355 31.6934 80.9492 31.6426 80.9766 31.6074C81.0078 31.5684 81.0586 31.5469 81.1289 31.543C81.3125 31.5273 81.4707 31.4941 81.6035 31.4434C81.7402 31.3887 81.8086 31.3105 81.8086 31.209L81.8145 24.1953C81.8145 24.0156 81.7773 23.8789 81.7031 23.7852C81.6289 23.6875 81.541 23.623 81.4395 23.5918C81.3379 23.5566 81.2109 23.5293 81.0586 23.5098C80.9336 23.4902 80.8613 23.4785 80.8418 23.4746C80.7949 23.4551 80.7598 23.4277 80.7363 23.3926C80.7129 23.3574 80.7012 23.3066 80.7012 23.2402C80.7012 23.1855 80.7129 23.1309 80.7363 23.0762C80.7637 23.0176 80.7988 22.9863 80.8418 22.9824C81.623 22.9355 82.4062 22.9121 83.1914 22.9121C83.2344 22.9121 83.2734 22.9316 83.3086 22.9707C83.3438 23.0059 83.3633 23.0645 83.3672 23.1465V31.0156C83.3672 31.1602 83.4023 31.2695 83.4727 31.3438C83.5469 31.418 83.6309 31.4668 83.7246 31.4902C83.8184 31.5098 83.9375 31.5273 84.082 31.543C84.168 31.5508 84.2246 31.5684 84.252 31.5957C84.2793 31.623 84.293 31.6758 84.293 31.7539C84.293 31.8125 84.2734 31.8691 84.2344 31.9238C84.1992 31.9746 84.1504 32 84.0879 32H81.1406ZM88.2188 31.7012C88.2188 31.6348 88.2324 31.584 88.2598 31.5488C88.2871 31.5137 88.3379 31.4922 88.4121 31.4844C88.6465 31.4648 88.8477 31.4277 89.0156 31.373C89.1836 31.3145 89.2676 31.2266 89.2676 31.1094V24.7695C89.2676 24.6172 89.2227 24.502 89.1328 24.4238C89.043 24.3457 88.9434 24.2949 88.834 24.2715C88.7285 24.248 88.5762 24.2246 88.377 24.2012C88.291 24.1934 88.2344 24.1777 88.207 24.1543C88.1797 24.127 88.166 24.0703 88.166 23.9844C88.166 23.9258 88.1836 23.8613 88.2188 23.791C88.2578 23.7207 88.3066 23.6855 88.3652 23.6855H94.8105L95.0156 25.5898C95.0195 25.6484 94.9922 25.6973 94.9336 25.7363C94.875 25.7715 94.8184 25.7891 94.7637 25.7891C94.5605 25.7891 94.4238 25.7246 94.3535 25.5957L94.1191 25.1328C94.0059 24.8984 93.9121 24.7266 93.8379 24.6172C93.7676 24.5078 93.6816 24.4219 93.5801 24.3594C93.4785 24.2969 93.3457 24.2656 93.1816 24.2656H90.9902V27.4414H92.4902C92.584 27.4297 92.6738 27.3613 92.7598 27.2363C92.8457 27.1113 92.918 26.9707 92.9766 26.8145C93.0352 26.6543 93.0703 26.5293 93.082 26.4395C93.0977 26.3145 93.1875 26.252 93.3516 26.252C93.4102 26.252 93.4746 26.2715 93.5449 26.3105C93.6152 26.3457 93.6504 26.3926 93.6504 26.4512V29.0469C93.6504 29.1055 93.6152 29.1543 93.5449 29.1934C93.4746 29.2285 93.4102 29.2461 93.3516 29.2461C93.2773 29.2461 93.2129 29.2324 93.1582 29.2051C93.1035 29.1738 93.0723 29.123 93.0645 29.0527C93.0566 28.9551 93.0234 28.8223 92.9648 28.6543C92.9062 28.4824 92.832 28.332 92.7422 28.2031C92.6523 28.0703 92.5566 28.0039 92.4551 28.0039H90.9902V30.8457C90.9902 31.1895 91.168 31.377 91.5234 31.4082H93.2051C93.4434 31.4082 93.6523 31.3574 93.832 31.2559C94.0156 31.1504 94.1836 30.9824 94.3359 30.752C94.4883 30.5215 94.6406 30.209 94.793 29.8145C94.8164 29.748 94.8691 29.6992 94.9512 29.668C95.0332 29.6367 95.1133 29.6211 95.1914 29.6211C95.2734 29.6211 95.3477 29.6387 95.4141 29.6738C95.4844 29.709 95.5234 29.7578 95.5312 29.8203L95.2734 32H88.418C88.3594 32 88.3105 31.9648 88.2715 31.8945C88.2363 31.8242 88.2188 31.7598 88.2188 31.7012ZM96.5449 30.582C96.5449 30.0977 96.7227 29.7129 97.0781 29.4277C97.4336 29.1387 97.8691 28.9297 98.3848 28.8008C98.9004 28.668 99.4883 28.5664 100.148 28.4961V27.5469C100.148 27.2305 100.066 26.9941 99.9023 26.8379C99.7383 26.6816 99.4922 26.6035 99.1641 26.6035C98.8633 26.6035 98.6504 26.6367 98.5254 26.7031L97.6699 28.2207C97.4082 28.2207 97.1953 28.1523 97.0312 28.0156C96.8711 27.8789 96.791 27.6875 96.791 27.4414C96.791 27.1562 96.9219 26.9102 97.1836 26.7031C97.4492 26.4922 97.7852 26.332 98.1914 26.2227C98.5977 26.1133 99.0059 26.0586 99.416 26.0586C100.252 26.0586 100.857 26.2188 101.232 26.5391C101.611 26.8555 101.801 27.2695 101.801 27.7812V30.834C101.801 30.9902 101.822 31.125 101.865 31.2383C101.908 31.3477 101.961 31.4023 102.023 31.4023C102.074 31.4023 102.172 31.3887 102.316 31.3613C102.402 31.3457 102.449 31.3379 102.457 31.3379C102.516 31.3379 102.561 31.3711 102.592 31.4375C102.623 31.5 102.639 31.5684 102.639 31.6426C102.639 31.6895 102.627 31.7227 102.604 31.7422C102.486 31.8242 102.287 31.9102 102.006 32C101.729 32.0898 101.424 32.1348 101.092 32.1348C100.756 32.1348 100.533 32.0645 100.424 31.9238C100.314 31.7832 100.26 31.6016 100.26 31.3789V31.3496C99.7598 31.873 99.0918 32.1348 98.2559 32.1348C97.9941 32.1348 97.7324 32.0801 97.4707 31.9707C97.209 31.8613 96.9883 31.6914 96.8086 31.4609C96.6328 31.2266 96.5449 30.9336 96.5449 30.582ZM98.2793 30.5293C98.2793 30.7559 98.3496 30.9512 98.4902 31.1152C98.6309 31.2754 98.8242 31.3555 99.0703 31.3555C99.3164 31.3555 99.5293 31.3105 99.709 31.2207C99.8887 31.127 100.035 31.0176 100.148 30.8926V28.9473C99.7539 29.0059 99.4258 29.082 99.1641 29.1758C98.9062 29.2656 98.6934 29.418 98.5254 29.6328C98.3613 29.8477 98.2793 30.1465 98.2793 30.5293ZM105.645 32.1699C105.367 32.1699 105.127 32.1406 104.924 32.082C104.725 32.0234 104.52 31.9512 104.309 31.8652C104.215 31.8262 104.135 31.8066 104.068 31.8066C104.01 31.8066 103.963 31.8164 103.928 31.8359C103.896 31.8516 103.865 31.875 103.834 31.9062C103.799 31.9375 103.764 31.9629 103.729 31.9824C103.693 31.998 103.645 32.0059 103.582 32.0059C103.504 32.0059 103.438 31.9883 103.383 31.9531C103.332 31.918 103.307 31.873 103.307 31.8184C103.307 31.7012 103.303 31.5703 103.295 31.4258C103.287 31.2812 103.281 31.1426 103.277 31.0098C103.254 30.5332 103.242 30.2324 103.242 30.1074C103.242 30.0215 103.268 29.959 103.318 29.9199C103.373 29.877 103.438 29.8555 103.512 29.8555C103.574 29.8555 103.627 29.8672 103.67 29.8906C103.717 29.9141 103.746 29.9453 103.758 29.9844C103.793 30.1133 103.83 30.2344 103.869 30.3477C103.912 30.4609 103.982 30.6152 104.08 30.8105C104.197 31.041 104.387 31.2422 104.648 31.4141C104.914 31.5859 105.221 31.6719 105.568 31.6719C105.904 31.6719 106.172 31.6094 106.371 31.4844C106.574 31.3594 106.676 31.1797 106.676 30.9453C106.676 30.7539 106.617 30.5898 106.5 30.4531C106.383 30.3125 106.209 30.1836 105.979 30.0664C105.748 29.9453 105.424 29.8047 105.006 29.6445C104.537 29.4531 104.152 29.2129 103.852 28.9238C103.555 28.6348 103.406 28.2578 103.406 27.793C103.406 27.4609 103.512 27.1621 103.723 26.8965C103.934 26.6309 104.215 26.4258 104.566 26.2812C104.918 26.1328 105.299 26.0586 105.709 26.0586C105.928 26.0586 106.121 26.0801 106.289 26.123C106.457 26.1621 106.627 26.2129 106.799 26.2754C106.928 26.3223 107.012 26.3457 107.051 26.3457C107.109 26.3457 107.148 26.3359 107.168 26.3164C107.191 26.293 107.209 26.2656 107.221 26.2344C107.232 26.1992 107.244 26.1719 107.256 26.1523C107.279 26.1133 107.314 26.084 107.361 26.0645C107.408 26.041 107.459 26.0293 107.514 26.0293C107.592 26.0293 107.658 26.0488 107.713 26.0879C107.771 26.123 107.801 26.1719 107.801 26.2344C107.801 26.2812 107.799 26.3262 107.795 26.3691C107.787 26.5723 107.783 26.7891 107.783 27.0195C107.783 27.0547 107.789 27.1953 107.801 27.4414C107.809 27.5664 107.812 27.6484 107.812 27.6875C107.812 27.7852 107.787 27.8574 107.736 27.9043C107.689 27.9512 107.627 27.9746 107.549 27.9746C107.494 27.9746 107.445 27.9648 107.402 27.9453C107.359 27.9219 107.332 27.8945 107.32 27.8633C107.234 27.6289 107.139 27.4219 107.033 27.2422C106.932 27.0625 106.775 26.9043 106.564 26.7676C106.357 26.6309 106.092 26.5625 105.768 26.5625C105.51 26.5625 105.293 26.6191 105.117 26.7324C104.945 26.8457 104.859 27.0195 104.859 27.2539C104.859 27.5039 104.967 27.7148 105.182 27.8867C105.4 28.0547 105.742 28.2246 106.207 28.3965C106.613 28.5488 106.961 28.707 107.25 28.8711C107.539 29.0352 107.773 29.2402 107.953 29.4863C108.137 29.7324 108.229 30.0234 108.229 30.3594C108.229 30.9336 108.004 31.3789 107.555 31.6953C107.109 32.0117 106.473 32.1699 105.645 32.1699ZM110.15 34.6309C109.963 34.6309 109.777 34.5898 109.594 34.5078C109.414 34.4297 109.266 34.3203 109.148 34.1797C109.035 34.043 108.979 33.8926 108.979 33.7285C108.979 33.5059 109.037 33.3301 109.154 33.2012C109.275 33.0723 109.42 33.0078 109.588 33.0078L110.268 33.7402C110.447 33.7363 110.607 33.6816 110.748 33.5762C110.893 33.4707 111.033 33.3105 111.17 33.0957C111.307 32.8809 111.465 32.584 111.645 32.2051L109.377 27.1426C109.283 26.9551 109.182 26.8281 109.072 26.7617C108.963 26.6914 108.826 26.6484 108.662 26.6328C108.576 26.625 108.52 26.6094 108.492 26.5859C108.465 26.5586 108.451 26.502 108.451 26.416C108.451 26.3613 108.469 26.3086 108.504 26.2578C108.539 26.2031 108.586 26.1758 108.645 26.1758H111.668C111.73 26.1758 111.779 26.2031 111.814 26.2578C111.85 26.3086 111.867 26.3613 111.867 26.416C111.867 26.4824 111.854 26.5332 111.826 26.5684C111.799 26.6035 111.748 26.625 111.674 26.6328C111.475 26.6562 111.318 26.6855 111.205 26.7207C111.096 26.752 111.041 26.8145 111.041 26.9082L112.424 30.5117L113.66 26.9082C113.66 26.8145 113.6 26.752 113.479 26.7207C113.361 26.6855 113.199 26.6562 112.992 26.6328C112.918 26.625 112.867 26.6035 112.84 26.5684C112.812 26.5332 112.799 26.4824 112.799 26.416C112.799 26.3613 112.816 26.3086 112.852 26.2578C112.887 26.2031 112.936 26.1758 112.998 26.1758H115.037C115.096 26.1758 115.143 26.2031 115.178 26.2578C115.217 26.3125 115.236 26.3652 115.236 26.416C115.236 26.502 115.223 26.5586 115.195 26.5859C115.168 26.6094 115.111 26.625 115.025 26.6328C114.869 26.6484 114.744 26.6895 114.65 26.7559C114.557 26.8223 114.463 26.9512 114.369 27.1426L112.688 31.4082C112.648 31.5059 112.623 31.5664 112.611 31.5898C112.342 32.2617 112.105 32.7988 111.902 33.2012C111.703 33.6035 111.457 33.9414 111.164 34.2148C110.875 34.4922 110.537 34.6309 110.15 34.6309Z" fill="#212529"/>
</svg>
