<svg xmlns="http://www.w3.org/2000/svg" width="25" height="24" viewBox="0 0 25 24" fill="none">
  <path
    d="M0 0C1.1351 0.454597 2.32591 0.755331 3.54075 0.894202C5.07907 0.728342 7.41034 0.923047 8.24022 0.894202C17.5284 0.961411 18.6461 0.173071 21.8263 3.20182C24.5473 5.79212 24.2159 10.0289 24.23 14.0381C24.247 18.7595 24.23 23.0762 24.23 23.0762C24.23 23.0762 19.9609 22.9686 15.0956 23.0762C10.9447 23.1682 6.3373 23.6724 3.49027 20.961C0.976411 18.5668 1.22881 14.8841 1.19419 10.2285C1.06122 7.1966 0.978142 2.0532 0.89651 1.59601C0.787066 0.977819 0.470978 0.415106 0 0Z"
    fill="#0011FF" />
  <path d="M2.95636 4.61548H0.792969V6.77887H2.95636V4.61548Z" fill="white" />
  <path d="M4.97589 2.59619H2.8125V4.75958H4.97589V2.59619Z" fill="white" />
  <path d="M6.99494 0.576904H4.83154V2.7403H6.99494V0.576904Z" fill="white" />
  <path d="M2.95636 2.59619H0.792969V4.75958H2.95636V2.59619Z" fill="#0011FF" />
  <path d="M2.95636 0.576904H0.792969V2.7403H2.95636V0.576904Z" fill="white" />
  <path d="M4.97589 0.64917H2.8125V2.81256H4.97589V0.64917Z" fill="#0011FF" />
  <path d="M2.16339 0H0V2.01917H2.16339V0Z" fill="#0011FF" />
  <path
    d="M10.8843 13.1225C10.8843 11.8563 11.9107 10.8298 13.1769 10.8298V13.6138C13.1769 14.2469 12.6637 14.7601 12.0306 14.7601C11.3975 14.7601 10.8843 14.2469 10.8843 13.6138V13.1225Z"
    fill="white" />
  <path
    d="M13.5042 8.86467C13.5042 7.59847 14.5306 6.57202 15.7968 6.57202V13.1224C15.7968 14.3886 14.7703 15.4151 13.5042 15.4151V12.6312V8.86467Z"
    fill="white" />
  <path
    d="M10.2933 10.8298C7.80418 12.926 9.25619 14.7601 10.2933 15.4151H11.4396C9.34351 13.319 10.5663 11.4849 11.4396 10.8298H10.2933Z"
    fill="white" />
  <path
    d="M11.7029 15.579L13.013 14.924C13.8135 17.4858 15.6473 14.4745 17.3204 12.7473C17.3604 12.6993 17.3984 12.6602 17.4345 12.6313C17.3966 12.6693 17.3585 12.708 17.3204 12.7473C16.4543 13.7879 14.6771 19.0229 11.7029 15.579Z"
    fill="white" />
  <rect x="12.5215" y="11.1572" width="0.327521" height="0.327521" fill="#0011FF" />
  <rect x="12.1941" y="10.8296" width="0.327521" height="0.327521" fill="#0011FF" />
  <rect x="12.8491" y="10.8296" width="0.327521" height="0.327521" fill="#0011FF" />
  <rect x="12.1941" y="11.4849" width="0.327521" height="0.327521" fill="#0011FF" />
  <rect x="11.8665" y="11.1572" width="0.327521" height="0.327521" fill="#0011FF" />
  <rect x="11.5388" y="11.4849" width="0.327521" height="0.327521" fill="#0011FF" />
  <rect x="11.2114" y="11.8123" width="0.327521" height="0.327521" fill="#0011FF" />
  <rect x="10.884" y="12.1399" width="0.327521" height="0.327521" fill="#0011FF" />
  <rect x="10.884" y="12.7949" width="0.327521" height="0.327521" fill="#0011FF" />
  <rect x="10.884" y="13.45" width="0.327521" height="0.327521" fill="#0011FF" />
  <rect x="11.2114" y="13.7776" width="0.327521" height="0.327521" fill="#0011FF" />
  <rect x="11.5388" y="14.105" width="0.327521" height="0.327521" fill="#0011FF" />
  <rect x="11.8665" y="14.4324" width="0.327521" height="0.327521" fill="#0011FF" />
  <rect x="10.884" y="14.105" width="0.327521" height="0.327521" fill="#0011FF" />
  <rect x="11.2114" y="14.4324" width="0.327521" height="0.327521" fill="#0011FF" />
  <rect x="11.2114" y="13.1223" width="0.327521" height="0.327521" fill="#0011FF" />
  <rect x="11.5388" y="13.45" width="0.327521" height="0.327521" fill="#0011FF" />
  <rect x="11.8665" y="13.7776" width="0.327521" height="0.327521" fill="#0011FF" />
  <rect x="12.1941" y="14.105" width="0.327521" height="0.327521" fill="#0011FF" />
  <rect x="12.5215" y="14.4324" width="0.327521" height="0.327521" fill="#0011FF" />
  <rect x="12.1941" y="13.45" width="0.327521" height="0.327521" fill="#0011FF" />
  <rect x="12.5215" y="13.7776" width="0.327521" height="0.327521" fill="#0011FF" />
  <rect x="12.8491" y="14.105" width="0.327521" height="0.327521" fill="#0011FF" />
  <rect x="11.2114" y="12.4673" width="0.327521" height="0.327521" fill="#0011FF" />
  <rect x="11.5388" y="12.7949" width="0.327521" height="0.327521" fill="#0011FF" />
  <rect x="11.8665" y="13.1223" width="0.327521" height="0.327521" fill="#0011FF" />
  <rect x="11.5388" y="12.1399" width="0.327521" height="0.327521" fill="#0011FF" />
  <rect x="11.8665" y="12.4673" width="0.327521" height="0.327521" fill="#0011FF" />
  <rect x="12.1941" y="12.7949" width="0.327521" height="0.327521" fill="#0011FF" />
  <rect x="12.5215" y="13.1223" width="0.327521" height="0.327521" fill="#0011FF" />
  <rect x="12.8491" y="13.45" width="0.327521" height="0.327521" fill="#0011FF" />
  <rect x="11.8665" y="11.8123" width="0.327521" height="0.327521" fill="#0011FF" />
  <rect x="12.1941" y="12.1399" width="0.327521" height="0.327521" fill="#0011FF" />
  <rect x="12.5215" y="12.4673" width="0.327521" height="0.327521" fill="#0011FF" />
  <rect x="12.8491" y="12.7949" width="0.327521" height="0.327521" fill="#0011FF" />
  <rect x="12.5215" y="11.8123" width="0.327521" height="0.327521" fill="#0011FF" />
  <rect x="12.8491" y="12.1399" width="0.327521" height="0.327521" fill="#0011FF" />
  <rect x="12.8491" y="11.4849" width="0.327521" height="0.327521" fill="#0011FF" />
</svg>