<svg width="43" height="41" viewBox="0 0 43 41" fill="none" xmlns="http://www.w3.org/2000/svg">
<g id="Group 68804">
<g id="Group 68787">
<g id="Group 68786">
<path id="Path 36386" d="M0.63319 0.429688C2.61733 1.22431 4.69884 1.74999 6.82236 1.99274C9.51131 1.70282 13.5863 2.04316 15.0369 1.99274C31.2725 2.11022 33.2263 0.732213 38.7852 6.02641C43.5414 10.5542 42.9621 17.96 42.9868 24.968C43.0165 33.2209 42.9868 40.7664 42.9868 40.7664C42.9868 40.7664 35.5245 40.5784 27.02 40.7664C19.7644 40.9273 11.7107 41.8086 6.73412 37.0691C2.33994 32.8841 2.78112 26.4469 2.72062 18.309C2.48818 13.0092 2.34296 4.01865 2.20027 3.21948C2.00897 2.1389 1.45645 1.15529 0.63319 0.429688Z" fill="#0011FF"/>
<path id="Rectangle 45893" d="M5.8009 8.49707H2.01933V12.2786H5.8009V8.49707Z" fill="white"/>
<path id="Rectangle 45894" d="M9.33105 4.96777H5.54948V8.74934H9.33105V4.96777Z" fill="white"/>
<path id="Rectangle 45895" d="M12.8604 1.43774H9.07882V5.21931H12.8604V1.43774Z" fill="white"/>
<path id="Rectangle 45891" d="M5.8009 4.96777H2.01933V8.74934H5.8009V4.96777Z" fill="#0011FF"/>
<path id="Rectangle 45890" d="M5.8009 1.43774H2.01933V5.21931H5.8009V1.43774Z" fill="white"/>
<path id="Rectangle 45892" d="M9.33105 1.56421H5.54948V5.34578H9.33105V1.56421Z" fill="#0011FF"/>
<path id="Rectangle 45889" d="M4.41476 0.429688H0.63319V3.95915H4.41476V0.429688Z" fill="#0011FF"/>
</g>
</g>
<g id="Group 68803">
<g id="Group 68800">
<path id="Rectangle 45897" d="M19.6587 23.3674C19.6587 21.1541 21.453 19.3599 23.6662 19.3599V24.2261C23.6662 25.3328 22.7691 26.2299 21.6625 26.2299C20.5558 26.2299 19.6587 25.3328 19.6587 24.2261V23.3674Z" fill="white"/>
<path id="Rectangle 45898" d="M24.2382 15.9247C24.2382 13.7115 26.0324 11.9172 28.2457 11.9172V23.3673C28.2457 25.5805 26.4515 27.3748 24.2382 27.3748V22.5085V15.9247Z" fill="white"/>
<path id="Vector 5" d="M18.626 19.3599C14.275 23.0239 16.813 26.2299 18.626 27.3749H20.6297C16.9657 23.7109 19.103 20.5049 20.6297 19.3599H18.626Z" fill="white"/>
<path id="Vector 6" d="M21.0899 27.6613L23.3799 26.5163C24.7792 30.9943 27.9846 25.7307 30.9092 22.7115C30.9791 22.6276 31.0455 22.5593 31.1086 22.5088C31.0423 22.5751 30.9758 22.6427 30.9092 22.7115C29.3952 24.5304 26.2888 33.6811 21.0899 27.6613Z" fill="white"/>
</g>
<g id="Group 68802">
<rect id="Rectangle 45899" x="22.5205" y="19.9321" width="0.572501" height="0.572501" fill="#0011FF"/>
<rect id="Rectangle 45935" x="21.9484" y="19.3596" width="0.572501" height="0.572501" fill="#0011FF"/>
<rect id="Rectangle 45936" x="23.0934" y="19.3596" width="0.572501" height="0.572501" fill="#0011FF"/>
<rect id="Rectangle 45900" x="21.9484" y="20.5049" width="0.572501" height="0.572501" fill="#0011FF"/>
<rect id="Rectangle 45901" x="21.3758" y="19.9321" width="0.572501" height="0.572501" fill="#0011FF"/>
<rect id="Rectangle 45905" x="20.8029" y="20.5049" width="0.572501" height="0.572501" fill="#0011FF"/>
<rect id="Rectangle 45910" x="20.2308" y="21.0771" width="0.572501" height="0.572501" fill="#0011FF"/>
<rect id="Rectangle 45916" x="19.6582" y="21.6497" width="0.572501" height="0.572501" fill="#0011FF"/>
<rect id="Rectangle 45923" x="19.6582" y="22.7947" width="0.572501" height="0.572501" fill="#0011FF"/>
<rect id="Rectangle 45929" x="19.6582" y="23.9399" width="0.572501" height="0.572501" fill="#0011FF"/>
<rect id="Rectangle 45930" x="20.2308" y="24.5125" width="0.572501" height="0.572501" fill="#0011FF"/>
<rect id="Rectangle 45931" x="20.8029" y="25.085" width="0.572501" height="0.572501" fill="#0011FF"/>
<rect id="Rectangle 45932" x="21.3758" y="25.6572" width="0.572501" height="0.572501" fill="#0011FF"/>
<rect id="Rectangle 45933" x="19.6582" y="25.085" width="0.572501" height="0.572501" fill="#0011FF"/>
<rect id="Rectangle 45934" x="20.2308" y="25.6572" width="0.572501" height="0.572501" fill="#0011FF"/>
<rect id="Rectangle 45924" x="20.2308" y="23.3669" width="0.572501" height="0.572501" fill="#0011FF"/>
<rect id="Rectangle 45925" x="20.8029" y="23.9399" width="0.572501" height="0.572501" fill="#0011FF"/>
<rect id="Rectangle 45926" x="21.3758" y="24.5125" width="0.572501" height="0.572501" fill="#0011FF"/>
<rect id="Rectangle 45927" x="21.9484" y="25.085" width="0.572501" height="0.572501" fill="#0011FF"/>
<rect id="Rectangle 45928" x="22.5205" y="25.6572" width="0.572501" height="0.572501" fill="#0011FF"/>
<rect id="Rectangle 45920" x="21.9484" y="23.9399" width="0.572501" height="0.572501" fill="#0011FF"/>
<rect id="Rectangle 45921" x="22.5205" y="24.5125" width="0.572501" height="0.572501" fill="#0011FF"/>
<rect id="Rectangle 45922" x="23.0934" y="25.085" width="0.572501" height="0.572501" fill="#0011FF"/>
<rect id="Rectangle 45917" x="20.2308" y="22.2219" width="0.572501" height="0.572501" fill="#0011FF"/>
<rect id="Rectangle 45918" x="20.8029" y="22.7947" width="0.572501" height="0.572501" fill="#0011FF"/>
<rect id="Rectangle 45919" x="21.3758" y="23.3669" width="0.572501" height="0.572501" fill="#0011FF"/>
<rect id="Rectangle 45911" x="20.8029" y="21.6497" width="0.572501" height="0.572501" fill="#0011FF"/>
<rect id="Rectangle 45912" x="21.3758" y="22.2219" width="0.572501" height="0.572501" fill="#0011FF"/>
<rect id="Rectangle 45913" x="21.9484" y="22.7947" width="0.572501" height="0.572501" fill="#0011FF"/>
<rect id="Rectangle 45914" x="22.5205" y="23.3669" width="0.572501" height="0.572501" fill="#0011FF"/>
<rect id="Rectangle 45915" x="23.0934" y="23.9399" width="0.572501" height="0.572501" fill="#0011FF"/>
<rect id="Rectangle 45906" x="21.3758" y="21.0771" width="0.572501" height="0.572501" fill="#0011FF"/>
<rect id="Rectangle 45907" x="21.9484" y="21.6497" width="0.572501" height="0.572501" fill="#0011FF"/>
<rect id="Rectangle 45908" x="22.5205" y="22.2219" width="0.572501" height="0.572501" fill="#0011FF"/>
<rect id="Rectangle 45909" x="23.0934" y="22.7947" width="0.572501" height="0.572501" fill="#0011FF"/>
<rect id="Rectangle 45902" x="22.5205" y="21.0771" width="0.572501" height="0.572501" fill="#0011FF"/>
<rect id="Rectangle 45904" x="23.0934" y="21.6497" width="0.572501" height="0.572501" fill="#0011FF"/>
<rect id="Rectangle 45903" x="23.0934" y="20.5049" width="0.572501" height="0.572501" fill="#0011FF"/>
</g>
</g>
</g>
</svg>
